<svg width="48" height="41" viewBox="0 0 48 41" fill="none" xmlns="http://www.w3.org/2000/svg">
<path d="M15.4436 22.1002C11.1111 19.96 6.31826 18.9193 1.48828 19.0702C1.83984 24.7665 4.37706 30.1072 8.57072 33.9783C12.7644 37.8494 18.2907 39.9519 23.9969 39.8474C29.7031 39.9519 35.2294 37.8494 39.4231 33.9783C43.6168 30.1072 46.154 24.7665 46.5055 19.0702C41.7148 18.9203 36.9599 19.9426 32.6541 22.0483M16.1362 14.0144C13.7805 11.4932 10.7905 9.65133 7.47904 8.68159C6.38042 12.2415 6.45935 16.0608 7.70412 19.5723M31.9442 14.0144C34.2999 11.4932 37.2899 9.65133 40.6013 8.68159C41.7 12.2415 41.621 16.0608 40.3763 19.5723M32.7407 19.9359C32.7407 30.9305 24.0835 39.8474 24.0835 39.8474C24.0835 39.8474 15.4263 30.9305 15.4263 19.9359C15.4263 8.94131 24.0835 1.75586 24.0835 1.75586C24.0835 1.75586 32.7407 8.94131 32.7407 19.9359Z" stroke="#FFC629" stroke-width="2" stroke-linecap="round" stroke-linejoin="round"/>
</svg>
