<svg width="53" height="43" viewBox="0 0 53 43" fill="none" xmlns="http://www.w3.org/2000/svg">
<g clip-path="url(#clip0_746_9838)">
<path d="M26.4206 3.24268V5.35072V3.24268ZM26.4206 39.0794V41.1874V39.0794ZM46.0795 22.2151H43.8952H46.0795ZM8.94604 22.2151H6.76172H8.94604ZM40.3216 35.6306L38.7773 34.1403L40.3216 35.6306ZM14.0639 10.2899L12.5196 8.79948L14.0639 10.2899ZM40.3216 8.79948L38.7773 10.2899L40.3216 8.79948ZM14.0639 34.1403L12.5196 35.6306L14.0639 34.1403ZM35.1579 22.2151C35.1579 24.4514 34.2374 26.5962 32.5988 28.1775C30.9602 29.7588 28.7379 30.6472 26.4206 30.6472C24.1033 30.6472 21.881 29.7588 20.2424 28.1775C18.6039 26.5962 17.6833 24.4514 17.6833 22.2151C17.6833 19.9787 18.6039 17.834 20.2424 16.2526C21.881 14.6713 24.1033 13.7829 26.4206 13.7829C28.7379 13.7829 30.9602 14.6713 32.5988 16.2526C34.2374 17.834 35.1579 19.9787 35.1579 22.2151V22.2151Z" stroke="#FFC629" stroke-width="2" stroke-linecap="round" stroke-linejoin="round"/>
</g>
<defs>
<clipPath id="clip0_746_9838">
<rect width="52.4237" height="41.939" fill="white" transform="translate(0.22168 0.643555)"/>
</clipPath>
</defs>
</svg>
