<svg width="37" height="37" viewBox="0 0 37 37" fill="none" xmlns="http://www.w3.org/2000/svg">
<path d="M33.0854 18.0229C31.9762 30.8072 25.1577 34.1339 18.5656 35.4442C11.9767 34.1183 5.15286 30.7754 4.08713 17.9886M14.6285 20.9404C14.3301 21.3589 13.9336 21.6977 13.4736 21.927C13.0137 22.1563 12.5045 22.269 11.9907 22.2554C11.4779 22.2622 10.9709 22.1458 10.5124 21.9158C10.0539 21.6859 9.65734 21.3493 9.35606 20.9342M22.5371 20.9498C22.8344 21.369 23.2302 21.7087 23.6896 21.9391C24.149 22.1694 24.6579 22.2834 25.1717 22.271C25.6846 22.279 26.1918 22.1638 26.6508 21.9349C27.1099 21.7061 27.5072 21.3704 27.8095 20.956M13.3331 1.6814C16.8426 10.0423 23.3593 16.746 34.9962 18.3283C38.0783 9.10521 31.1281 1.18838 18.6061 1.17357C6.08418 1.15877 -0.88474 9.05915 2.17553 18.2895C8.45467 17.6469 14.2882 14.7505 18.5955 10.1367" stroke="#FFC629" stroke-width="2" stroke-linecap="round" stroke-linejoin="round"/>
</svg>
