<?xml version="1.0" encoding="UTF-8"?><svg id="Layer_2" xmlns="http://www.w3.org/2000/svg" viewBox="0 0 43.8 34.02">
<defs>
    <style>
      .cls-1 {
        fill: none;
        stroke: #000000; /* Change the stroke color here */
        stroke-linecap: round;
        stroke-linejoin: round;
        stroke-width: 1.5px;
      }
    </style>
</defs>
<g id="Layer_1-2"><g id="BHMI4J"><path class="cls-1" d="m36.06,24.49c.12-.02.25,0,.37,0,2.05,0,4.1,0,6.15,0,.15,0,.3,0,.46,0v-11.03c-.99,0-1.98-.05-2.96,0-1.9.11-3.69.65-5.42,1.45-2.04.94-4.09.88-6.09-.13-1.26-.64-2.57-1.12-3.98-1.29"/><path class="cls-1" d="m19.28,13.48c-.32.07-.66.07-.97.18-.91.3-1.86.54-2.71.97-2.28,1.17-4.53,1.25-6.85.13-2.11-1.02-4.36-1.39-6.69-1.34-.4,0-.8,0-1.2,0-.03,0-.05.01-.11.02v11.04c.19,0,.36,0,.54,0,9.68,0,19.36,0,29.04,0,.14,0,.28,0,.41,0"/><path class="cls-1" d="m8.01,8.24c.92.32,1.85.62,2.74,1.02,1.79.8,3.54.78,5.29-.1,3.91-1.97,7.82-1.97,11.73,0,1.76.89,3.54.93,5.32.07,2.62-1.27,5.4-1.65,8.27-1.51.71.04,1.2.43,1.52,1.05.06.12.12.24.17.36v22.64c-.5,1.2-.95,1.5-2.26,1.5-12.59,0-25.19,0-37.78,0-1.31,0-1.75-.3-2.26-1.5,0-7.55,0-15.09,0-22.64.05-.09.1-.19.14-.28.32-.7.86-1.11,1.63-1.13.76-.02,1.51,0,2.27.01"/></g><line class="cls-1" x1="13.49" y1=".75" x2="13.49" y2="5.86"/><polyline class="cls-1" points="12.03 4.4 13.49 5.86 14.95 4.4"/><line class="cls-1" x1="30.04" y1=".75" x2="30.04" y2="5.86"/><polyline class="cls-1" points="28.58 4.4 30.04 5.86 31.5 4.4"/><line class="cls-1" x1="6.56" y1="21.98" x2="6.56" y2="16.87"/><polyline class="cls-1" points="8.02 18.33 6.56 16.87 5.1 18.33"/><line class="cls-1" x1="21.9" y1="21.98" x2="21.9" y2="16.87"/><polyline class="cls-1" points="23.36 18.33 21.9 16.87 20.44 18.33"/><line class="cls-1" x1="38.02" y1="21.98" x2="38.02" y2="16.87"/><polyline class="cls-1" points="39.48 18.33 38.02 16.87 36.56 18.33"/><path class="cls-1" d="m29.26,28.63c-.15,0-.3.01-.45,0-.35-.03-.6-.29-.6-.61,0-.32.25-.59.6-.62.29-.02.58-.01.86,0,.38.02.64.28.64.61,0,.34-.26.6-.64.62-.14,0-.27,0-.41,0h0Z"/><path class="cls-1" d="m14.55,30.36c-.15,0-.3.01-.45,0-.35-.03-.6-.28-.61-.61,0-.32.24-.6.59-.62.3-.02.6-.02.91,0,.35.02.6.28.61.61,0,.33-.24.59-.59.62-.15.01-.3,0-.45,0Z"/><path class="cls-1" d="m4.72,30.36c-.14,0-.27,0-.41,0-.38-.03-.63-.29-.62-.64,0-.33.25-.58.61-.6.27-.02.55-.01.82,0,.4.02.67.28.66.63-.01.34-.27.58-.65.6-.14,0-.27,0-.41,0Z"/><path class="cls-1" d="m39.06,28.62c-.16,0-.33.02-.49,0-.34-.05-.55-.27-.55-.61,0-.34.21-.57.55-.61.3-.03.6-.02.9,0,.38.02.63.27.63.62,0,.35-.25.59-.63.62-.14,0-.27,0-.41,0,0,0,0,0,0,0Z"/><path class="cls-1" d="m19.45,27.39c.16,0,.33-.02.49,0,.34.05.55.26.55.61,0,.35-.21.57-.55.61-.3.03-.6.02-.9,0-.38-.02-.63-.27-.63-.62,0-.35.25-.59.63-.62.14,0,.27,0,.41,0,0,0,0,0,0,0Z"/><path class="cls-1" d="m24.37,30.36c-.18,0-.36.03-.53,0-.34-.06-.54-.28-.53-.63,0-.33.21-.55.53-.58.34-.04.69-.04,1.03,0,.32.03.52.25.52.59,0,.35-.19.57-.53.63-.16.03-.33,0-.49,0,0,0,0,0,0,0Z"/><path class="cls-1" d="m9.65,27.39c.16,0,.33-.02.49,0,.32.06.52.25.53.58.01.36-.18.59-.52.63-.34.04-.69.04-1.03,0-.34-.04-.54-.27-.53-.62.01-.35.22-.55.56-.6.16-.02.33,0,.49,0,0,0,0,0,0,0Z"/><path class="cls-1" d="m34.15,30.36c-.15,0-.3.01-.45,0-.35-.03-.58-.29-.58-.62,0-.34.24-.59.6-.61.29-.02.58-.01.86,0,.38.02.63.27.62.62,0,.35-.25.59-.64.61-.14,0-.27,0-.41,0,0,0,0,0,0,0Z"/></g></svg>