<svg width="12" height="12" viewBox="0 0 21 21" fill="none" xmlns="http://www.w3.org/2000/svg">
<path d="M17.4002 3.00528C15.4602 1.16528 12.9302 0.185276 10.2602 0.245276C7.59016 0.315276 5.10016 1.41528 3.26016 3.34528C1.42016 5.28528 0.440159 7.81528 0.500159 10.4853C0.570159 13.1553 1.67016 15.6453 3.60016 17.4853C3.68016 17.5653 3.76016 17.6353 3.85016 17.7053C5.69016 19.3553 8.02016 20.2453 10.4902 20.2453H10.7402C13.1302 20.1853 15.3802 19.2953 17.1502 17.7053C17.3502 17.5353 17.5502 17.3453 17.7402 17.1453C19.5302 15.2653 20.5002 12.8253 20.5002 10.2353V10.0053C20.4302 7.33528 19.3302 4.84528 17.4002 3.00528ZM10.7102 18.7453C8.69016 18.7853 6.76016 18.1353 5.21016 16.8853C5.66016 15.6253 6.89016 14.7553 8.25016 14.7553H12.7502C14.1102 14.7553 15.3402 15.6253 15.7902 16.8853C14.3502 18.0553 12.5902 18.6953 10.7102 18.7453ZM16.9402 15.7753C16.1302 14.2653 14.5302 13.2553 12.7502 13.2553H8.25016C6.47016 13.2553 4.86016 14.2653 4.06016 15.7853C2.77016 14.3053 2.05016 12.4453 2.00016 10.4553C1.95016 8.18528 2.78016 6.02528 4.35016 4.38528C5.91016 2.73528 8.02016 1.80528 10.2902 1.74528H10.5102C12.7002 1.74528 14.7702 2.57528 16.3602 4.09528C17.1802 4.87528 17.8302 5.79528 18.2802 6.79528C18.7202 7.80528 18.9702 8.90528 19.0002 10.0353C19.0502 12.1553 18.3302 14.1853 16.9402 15.7753Z" fill="#121331"/>
<path d="M13.25 11.7451H10.25C8.46 11.7451 7 10.2851 7 8.49512V6.49512C7 4.70512 8.46 3.24512 10.25 3.24512H10.75C12.54 3.24512 14 4.70512 14 6.49512V10.9951C14 11.4051 13.66 11.7451 13.25 11.7451ZM10.25 4.74512C9.29 4.74512 8.5 5.53512 8.5 6.49512V8.49512C8.5 9.45512 9.29 10.2451 10.25 10.2451H12.5V6.49512C12.5 5.53512 11.71 4.74512 10.75 4.74512H10.25Z" fill="#121331"/>
</svg>
