<svg width="17" height="16" viewBox="0 0 17 16" fill="none" xmlns="http://www.w3.org/2000/svg">
<path d="M15.5186 6.85796H3.65855L7.28856 1.87555C7.45829 1.64218 7.53996 1.34131 7.51558 1.03914C7.4912 0.736965 7.36277 0.458234 7.15856 0.264265C6.95434 0.0702951 6.69106 -0.0230245 6.42663 0.00483557C6.1622 0.0326956 5.91829 0.179453 5.74855 0.412823L0.748555 7.26935C0.714915 7.32389 0.684834 7.38118 0.658555 7.44076C0.658555 7.4979 0.658555 7.53219 0.588555 7.58932C0.543228 7.72035 0.519496 7.85983 0.518555 8.00071C0.519496 8.1416 0.543228 8.28108 0.588555 8.41211C0.588555 8.46924 0.588555 8.50353 0.658555 8.56066C0.684834 8.62025 0.714915 8.67754 0.748555 8.73208L5.74855 15.5886C5.84258 15.7176 5.96032 15.8213 6.0934 15.8924C6.22648 15.9635 6.37164 16.0003 6.51855 16C6.75221 16.0005 6.97864 15.9075 7.15856 15.7372C7.25981 15.6412 7.34352 15.5234 7.40487 15.3905C7.46622 15.2575 7.50402 15.112 7.51609 14.9623C7.52817 14.8127 7.51429 14.6617 7.47524 14.5182C7.4362 14.3747 7.37276 14.2414 7.28856 14.1259L3.65855 9.14347H15.5186C15.7838 9.14347 16.0381 9.02307 16.2257 8.80876C16.4132 8.59446 16.5186 8.30379 16.5186 8.00071C16.5186 7.69764 16.4132 7.40697 16.2257 7.19267C16.0381 6.97836 15.7838 6.85796 15.5186 6.85796Z" fill="black"/>
</svg>
