<svg width="20" height="20" viewBox="0 0 36 29" fill="none" xmlns="http://www.w3.org/2000/svg">
<g clip-path="url(#clip0_2017_973)">
<path d="M17.8525 5.82211C19.6325 5.82211 21.0825 4.9721 21.0825 3.9221C21.0375 3.42343 20.8802 2.9414 20.6225 2.5121C20.9025 2.2721 20.8325 1.7321 20.4625 1.3121C20.0925 0.892103 19.5825 0.742101 19.3025 0.982101C18.8915 0.630605 18.3731 0.429576 17.8325 0.412109C17.2958 0.430745 16.7797 0.623833 16.3625 0.962112C16.0825 0.752112 15.5725 0.902103 15.2125 1.3121C14.8525 1.7221 14.7725 2.3121 15.0625 2.5121C14.8044 2.94482 14.6471 3.43021 14.6025 3.93211C14.6025 4.98211 16.0425 5.83211 17.8325 5.83211" fill="#FFC629"/>
<path d="M35.0418 12.7528C34.7918 11.4628 31.4218 10.4028 28.5118 9.61281C25.2518 8.74281 22.5118 7.92281 21.1518 7.52281C21.0949 7.37836 21.0281 7.23802 20.9518 7.10281C20.5878 6.64193 20.1117 6.2822 19.5689 6.05807C19.0261 5.83395 18.4348 5.75295 17.8518 5.82281C17.2686 5.75197 16.6771 5.83252 16.1341 6.05672C15.5911 6.28091 15.1151 6.64119 14.7518 7.10281C14.6739 7.2337 14.607 7.37083 14.5518 7.5128C13.2418 7.9128 10.4418 8.74281 7.16176 9.61281C4.25176 10.4028 0.871761 11.4628 0.631761 12.7528C0.60042 12.9943 0.665055 13.2385 0.811769 13.4328C1.81177 15.0328 4.81177 17.7628 7.06177 16.9128C9.1264 14.351 11.5089 12.0626 14.1518 10.1028C14.1518 10.2928 14.1518 10.4928 14.1518 10.6928C11.5459 12.6342 9.19414 14.8953 7.15177 17.4228C7.4476 17.9247 7.90819 18.3085 8.45514 18.5091C9.0021 18.7096 9.60163 18.7145 10.1518 18.5228C10.9808 18.3056 11.7446 17.8898 12.377 17.3114C13.0095 16.733 13.4916 16.0093 13.7818 15.2028C13.8718 14.9728 13.9818 14.6128 14.1018 14.2028C14.2443 13.6513 14.4146 13.1073 14.6118 12.5728C14.742 13.0525 14.9894 13.4924 15.3318 13.8528C14.3318 14.1528 13.7618 15.0728 13.7618 17.7528C13.7618 18.2028 13.7618 18.6628 13.7618 19.1428C16.4068 18.3962 19.2068 18.3962 21.8518 19.1428C21.8518 18.6628 21.9018 18.2028 21.9018 17.7528C21.9018 15.0728 21.2918 14.1528 20.3318 13.8528C20.6717 13.5039 20.9162 13.0735 21.0418 12.6028C21.2318 13.1228 21.4018 13.6828 21.5418 14.2028C21.6301 14.5417 21.7369 14.8756 21.8618 15.2028C22.1519 16.0093 22.6341 16.733 23.2665 17.3114C23.8989 17.8898 24.6627 18.3056 25.4918 18.5228C26.0419 18.7145 26.6414 18.7096 27.1884 18.5091C27.7354 18.3085 28.1959 17.9247 28.4918 17.4228C26.4528 14.898 24.1005 12.6432 21.4918 10.7128C21.4918 10.5128 21.4918 10.3028 21.4918 10.1228C24.1261 12.0745 26.4988 14.3566 28.5518 16.9128C30.7518 17.7628 33.7518 15.0328 34.8018 13.4328C34.9485 13.2385 35.0131 12.9943 34.9818 12.7528" fill="#FFC629"/>
<path d="M14.7822 24.2426C15.5322 26.5626 16.6222 28.2925 17.8522 28.2925C19.0822 28.2925 20.1722 26.5626 20.9222 24.2426C18.9022 23.7759 16.8023 23.7759 14.7822 24.2426Z" fill="#FFC629"/>
<path d="M13.8418 19.6026C13.9753 21.0214 14.2432 22.4244 14.6418 23.7926C16.75 23.2994 18.9436 23.2994 21.0518 23.7926C21.4552 22.4255 21.7232 21.0221 21.8518 19.6026C19.2371 18.8577 16.4664 18.8577 13.8518 19.6026" fill="#FFC629"/>
</g>
<defs>
<clipPath id="clip0_2017_973">
<rect width="34.43" height="27.91" fill="white" transform="translate(0.62207 0.392578)"/>
</clipPath>
</defs>
</svg>
