<svg width="33" height="33" viewBox="0 0 33 33" fill="none" xmlns="http://www.w3.org/2000/svg">
<g id="bi:question-circle" clip-path="url(#clip0_1132_10070)">
<g id="Group">
<path id="Vector" d="M16.3642 30.1441C12.6898 30.1441 9.16596 28.6845 6.5678 26.0863C3.96963 23.4881 2.50999 19.9643 2.50999 16.2899C2.50999 12.6156 3.96963 9.09168 6.5678 6.49352C9.16596 3.89535 12.6898 2.43571 16.3642 2.43571C20.0386 2.43571 23.5624 3.89535 26.1606 6.49352C28.7588 9.09168 30.2184 12.6156 30.2184 16.2899C30.2184 19.9643 28.7588 23.4881 26.1606 26.0863C23.5624 28.6845 20.0386 30.1441 16.3642 30.1441ZM16.3642 32.1233C20.5635 32.1233 24.5907 30.4551 27.5601 27.4858C30.5294 24.5165 32.1976 20.4892 32.1976 16.2899C32.1976 12.0906 30.5294 8.06336 27.5601 5.09403C24.5907 2.1247 20.5635 0.456543 16.3642 0.456543C12.1649 0.456543 8.13764 2.1247 5.16831 5.09403C2.19898 8.06336 0.530823 12.0906 0.530823 16.2899C0.530823 20.4892 2.19898 24.5165 5.16831 27.4858C8.13764 30.4551 12.1649 32.1233 16.3642 32.1233Z" fill="#FFC629"/>
<path id="Vector_2" d="M10.9313 11.9082C10.9286 11.9721 10.939 12.0359 10.9619 12.0956C10.9847 12.1554 11.0196 12.2098 11.0642 12.2556C11.1089 12.3014 11.1625 12.3376 11.2217 12.3619C11.2808 12.3862 11.3443 12.3982 11.4083 12.397H13.0411C13.3143 12.397 13.532 12.1734 13.5676 11.9022C13.7457 10.6039 14.6363 9.65786 16.2236 9.65786C17.5813 9.65786 18.8243 10.3367 18.8243 11.9695C18.8243 13.2263 18.0841 13.8042 16.9144 14.683C15.5824 15.6508 14.5275 16.7809 14.6027 18.6156L14.6086 19.0451C14.6107 19.1749 14.6638 19.2987 14.7563 19.3898C14.8489 19.4809 14.9736 19.532 15.1034 19.5319H16.7085C16.8398 19.5319 16.9656 19.4798 17.0584 19.387C17.1512 19.2942 17.2033 19.1684 17.2033 19.0372V18.8293C17.2033 17.4083 17.7436 16.9946 19.2023 15.8883C20.4076 14.9719 21.6644 13.9546 21.6644 11.8191C21.6644 8.82858 19.139 7.38379 16.3741 7.38379C13.8664 7.38379 11.1194 8.5515 10.9313 11.9082ZM14.0129 23.3141C14.0129 24.369 14.854 25.1488 16.0119 25.1488C17.2172 25.1488 18.0465 24.369 18.0465 23.3141C18.0465 22.2216 17.2152 21.4537 16.0099 21.4537C14.854 21.4537 14.0129 22.2216 14.0129 23.3141Z" fill="#FFC629"/>
</g>
</g>
<defs>
<clipPath id="clip0_1132_10070">
<rect width="31.6667" height="31.6667" fill="white" transform="translate(0.530823 0.456543)"/>
</clipPath>
</defs>
</svg>
