<svg width="37" height="37" viewBox="0 0 37 37" fill="none" xmlns="http://www.w3.org/2000/svg">
<path d="M18.2549 30.3388C19.6841 30.3388 20.8427 29.1802 20.8427 27.751C20.8427 26.3217 19.6841 25.1631 18.2549 25.1631C16.8256 25.1631 15.667 26.3217 15.667 27.751C15.667 29.1802 16.8256 30.3388 18.2549 30.3388Z" stroke="#FFC629" stroke-width="2" stroke-linecap="round" stroke-linejoin="round"/>
<path d="M9.19724 30.3388C10.6265 30.3388 11.7851 29.1802 11.7851 27.751C11.7851 26.3217 10.6265 25.1631 9.19724 25.1631C7.768 25.1631 6.60938 26.3217 6.60938 27.751C6.60938 29.1802 7.768 30.3388 9.19724 30.3388Z" stroke="#FFC629" stroke-width="2" stroke-linecap="round" stroke-linejoin="round"/>
<path d="M27.3125 30.3388C28.7417 30.3388 29.9003 29.1802 29.9003 27.751C29.9003 26.3217 28.7417 25.1631 27.3125 25.1631C25.8832 25.1631 24.7246 26.3217 24.7246 27.751C24.7246 29.1802 25.8832 30.3388 27.3125 30.3388Z" stroke="#FFC629" stroke-width="2" stroke-linecap="round" stroke-linejoin="round"/>
<path d="M18.2549 21.2812C19.6841 21.2812 20.8427 20.1226 20.8427 18.6933C20.8427 17.2641 19.6841 16.1055 18.2549 16.1055C16.8256 16.1055 15.667 17.2641 15.667 18.6933C15.667 20.1226 16.8256 21.2812 18.2549 21.2812Z" stroke="#FFC629" stroke-width="2" stroke-linecap="round" stroke-linejoin="round"/>
<path d="M9.19724 21.2812C10.6265 21.2812 11.7851 20.1226 11.7851 18.6933C11.7851 17.2641 10.6265 16.1055 9.19724 16.1055C7.768 16.1055 6.60938 17.2641 6.60938 18.6933C6.60938 20.1226 7.768 21.2812 9.19724 21.2812Z" stroke="#FFC629" stroke-width="2" stroke-linecap="round" stroke-linejoin="round"/>
<path d="M27.3125 21.2812C28.7417 21.2812 29.9003 20.1226 29.9003 18.6933C29.9003 17.2641 28.7417 16.1055 27.3125 16.1055C25.8832 16.1055 24.7246 17.2641 24.7246 18.6933C24.7246 20.1226 25.8832 21.2812 27.3125 21.2812Z" stroke="#FFC629" stroke-width="2" stroke-linecap="round" stroke-linejoin="round"/>
<path d="M1.43359 10.9302H35.0759V31.6331C35.0759 32.6626 34.6669 33.65 33.9389 34.378C33.2109 35.1059 32.2236 35.5149 31.1941 35.5149H5.3154C4.28588 35.5149 3.29854 35.1059 2.57056 34.378C1.84258 33.65 1.43359 32.6626 1.43359 31.6331V10.9302Z" stroke="#FFC629" stroke-width="2" stroke-linecap="round" stroke-linejoin="round"/>
<path d="M4.02146 1.87256H32.488C33.1744 1.87256 33.8326 2.14521 34.3179 2.63053C34.8032 3.11585 35.0759 3.77408 35.0759 4.46043V7.0483H1.43359V4.46043C1.43359 3.77408 1.70624 3.11585 2.19156 2.63053C2.67688 2.14521 3.33512 1.87256 4.02146 1.87256Z" stroke="#FFC629" stroke-width="2" stroke-linecap="round" stroke-linejoin="round"/>
<path d="M5.31543 10.9297V7.04785" stroke="#FFC629" stroke-width="2" stroke-linecap="round" stroke-linejoin="round"/>
<path d="M31.1943 10.9297V7.04785" stroke="#FFC629" stroke-width="2" stroke-linecap="round" stroke-linejoin="round"/>
</svg>
