<svg width="28" height="29" viewBox="0 0 28 29" fill="none" xmlns="http://www.w3.org/2000/svg">
<path d="M13.9997 16.637C16.5733 16.637 18.6663 14.544 18.6663 11.9704C18.6663 9.39671 16.5733 7.30371 13.9997 7.30371C11.426 7.30371 9.33301 9.39671 9.33301 11.9704C9.33301 14.544 11.426 16.637 13.9997 16.637ZM13.9997 9.63704C15.2865 9.63704 16.333 10.6835 16.333 11.9704C16.333 13.2572 15.2865 14.3037 13.9997 14.3037C12.7128 14.3037 11.6663 13.2572 11.6663 11.9704C11.6663 10.6835 12.7128 9.63704 13.9997 9.63704Z" fill="white"/>
<path d="M13.3238 25.7533C13.5212 25.8943 13.7578 25.9701 14.0004 25.9701C14.2431 25.9701 14.4796 25.8943 14.6771 25.7533C15.0318 25.5025 23.3676 19.4836 23.3338 11.9703C23.3338 6.82413 19.1466 2.63696 14.0004 2.63696C8.85426 2.63696 4.66709 6.82413 4.66709 11.9645C4.63326 19.4836 12.9691 25.5025 13.3238 25.7533ZM14.0004 4.9703C17.8609 4.9703 21.0004 8.1098 21.0004 11.9761C21.0249 17.1538 15.8811 21.803 14.0004 23.3278C12.1209 21.8018 6.97593 17.1515 7.00043 11.9703C7.00043 8.1098 10.1399 4.9703 14.0004 4.9703Z" fill="white"/>
</svg>
