<svg width="12" height="12" viewBox="0 0 21 21" fill="none" xmlns="http://www.w3.org/2000/svg">
<path d="M12.3565 0.365117C11.8765 0.285117 11.3765 0.245117 10.8765 0.245117C10.3765 0.245117 9.87646 0.285117 9.39647 0.365117C4.58647 1.07512 0.876465 5.23512 0.876465 10.2451C0.876465 15.2551 4.58647 19.4151 9.39647 20.1251C9.87646 20.2051 10.3765 20.2451 10.8765 20.2451C11.3765 20.2451 11.8765 20.2051 12.3565 20.1251C17.1665 19.4151 20.8765 15.2551 20.8765 10.2451C20.8765 5.23512 17.1665 1.07512 12.3565 0.365117ZM19.3465 9.49512H14.8665C14.7965 6.61512 14.3465 4.01512 13.6265 2.20512C16.7465 3.27512 19.0465 6.09512 19.3465 9.49512ZM11.7465 1.78512C12.6565 3.23512 13.2865 6.21512 13.3665 9.49512H8.38647C8.47647 5.81512 9.21646 3.06512 9.99646 1.78512C10.2865 1.76512 10.5765 1.74512 10.8765 1.74512C11.1665 1.74512 11.4565 1.75512 11.7465 1.78512ZM8.13647 2.20512C7.40647 4.00512 6.95647 6.60512 6.88647 9.49512H2.40646C2.70646 6.09512 5.01647 3.26512 8.13647 2.20512ZM2.40646 10.9951H6.88647C6.95647 13.8851 7.40647 16.4751 8.13647 18.2851C5.01647 17.2251 2.70646 14.3951 2.40646 10.9951ZM9.99646 18.7051C9.21646 17.4251 8.47647 14.6751 8.38647 10.9951H13.3665C13.2865 14.2751 12.6565 17.2551 11.7465 18.7051C11.4565 18.7351 11.1665 18.7451 10.8765 18.7451C10.5765 18.7451 10.2865 18.7251 9.99646 18.7051ZM13.6265 18.2851C14.3465 16.4751 14.7965 13.8751 14.8665 10.9951H19.3465C19.0465 14.3951 16.7465 17.2151 13.6265 18.2851Z" fill="#121331"/>
</svg>
