<svg width="52" height="52" viewBox="0 0 52 52" fill="none" xmlns="http://www.w3.org/2000/svg">
<path fill-rule="evenodd" clip-rule="evenodd" d="M25.2715 18.0472C25.4975 17.934 25.7468 17.875 25.9995 17.875C26.2523 17.875 26.5016 17.934 26.7275 18.0472L46.2275 27.7972C46.42 27.8918 46.5918 28.0235 46.7332 28.1849C46.8745 28.3462 46.9824 28.5339 47.0509 28.7371C47.1193 28.9404 47.1468 29.1552 47.1318 29.3691C47.1168 29.583 47.0597 29.7919 46.9636 29.9836C46.8675 30.1753 46.7344 30.3462 46.572 30.4862C46.4096 30.6263 46.2211 30.7328 46.0173 30.7996C45.8135 30.8665 45.5985 30.8923 45.3847 30.8757C45.1709 30.8591 44.9625 30.8003 44.7715 30.7027L25.9995 21.3199L7.22753 30.7027C7.03655 30.8003 6.82815 30.8591 6.61434 30.8757C6.40053 30.8923 6.18554 30.8665 5.98176 30.7996C5.77799 30.7328 5.58947 30.6263 5.42706 30.4862C5.26465 30.3462 5.13157 30.1753 5.03549 29.9836C4.93941 29.7919 4.88223 29.583 4.86725 29.3691C4.85227 29.1552 4.87978 28.9404 4.94821 28.7371C5.01663 28.5339 5.12461 28.3462 5.26592 28.1849C5.40722 28.0235 5.57906 27.8918 5.77153 27.7972L25.2715 18.0472Z" fill="black"/>
</svg>
