<svg width="45" height="45" viewBox="0 0 45 45" fill="none" xmlns="http://www.w3.org/2000/svg">
<path d="M42.0649 23.1102L37.8961 13.3831C37.7897 13.1319 37.6118 12.9176 37.3844 12.7669C37.1571 12.6162 36.8904 12.5357 36.6177 12.5355H32.4489V9.75629C32.4489 9.38775 32.3025 9.0343 32.0419 8.7737C31.7813 8.5131 31.4279 8.3667 31.0593 8.3667H4.65717C4.28862 8.3667 3.93518 8.5131 3.67458 8.7737C3.41398 9.0343 3.26758 9.38775 3.26758 9.75629V33.3793C3.26758 33.7478 3.41398 34.1013 3.67458 34.3619C3.93518 34.6225 4.28862 34.7689 4.65717 34.7689H7.63088C7.95088 35.9464 8.64945 36.9858 9.61882 37.7269C10.5882 38.468 11.7745 38.8695 12.9947 38.8695C14.2149 38.8695 15.4012 38.468 16.3706 37.7269C17.3399 36.9858 18.0385 35.9464 18.3585 34.7689H27.0851C27.4051 35.9464 28.1037 36.9858 29.073 37.7269C30.0424 38.468 31.2287 38.8695 32.4489 38.8695C33.6691 38.8695 34.8554 38.468 35.8248 37.7269C36.7942 36.9858 37.4927 35.9464 37.8127 34.7689H40.7864C41.155 34.7689 41.5084 34.6225 41.769 34.3619C42.0296 34.1013 42.176 33.7478 42.176 33.3793V23.6522C42.1757 23.4659 42.1379 23.2816 42.0649 23.1102ZM32.4489 15.3146H35.7006L38.6743 22.2626H32.4489V15.3146ZM12.9947 36.1584C12.445 36.1584 11.9077 35.9955 11.4507 35.6901C10.9936 35.3847 10.6374 34.9506 10.4271 34.4428C10.2167 33.935 10.1617 33.3762 10.2689 32.8371C10.3762 32.298 10.6408 31.8028 11.0295 31.4141C11.4182 31.0254 11.9134 30.7607 12.4525 30.6535C12.9916 30.5463 13.5504 30.6013 14.0582 30.8116C14.5661 31.022 15.0001 31.3782 15.3055 31.8352C15.6109 32.2923 15.7739 32.8296 15.7739 33.3793C15.7739 34.1164 15.4811 34.8232 14.9599 35.3444C14.4387 35.8656 13.7318 36.1584 12.9947 36.1584ZM27.0851 31.9897H18.3585C18.0385 30.8122 17.3399 29.7727 16.3706 29.0316C15.4012 28.2905 14.2149 27.889 12.9947 27.889C11.7745 27.889 10.5882 28.2905 9.61882 29.0316C8.64945 29.7727 7.95088 30.8122 7.63088 31.9897H6.04675V11.1459H29.6697V28.5991C29.037 28.9663 28.4829 29.4549 28.0394 30.0367C27.5959 30.6186 27.2716 31.2822 27.0851 31.9897ZM32.4489 36.1584C31.8992 36.1584 31.3619 35.9955 30.9049 35.6901C30.4479 35.3847 30.0916 34.9506 29.8813 34.4428C29.6709 33.935 29.6159 33.3762 29.7231 32.8371C29.8304 32.298 30.0951 31.8028 30.4837 31.4141C30.8724 31.0254 31.3676 30.7607 31.9067 30.6535C32.4458 30.5463 33.0046 30.6013 33.5125 30.8116C34.0203 31.022 34.4543 31.3782 34.7597 31.8352C35.0651 32.2923 35.2281 32.8296 35.2281 33.3793C35.2281 34.1164 34.9353 34.8232 34.4141 35.3444C33.8929 35.8656 33.186 36.1584 32.4489 36.1584ZM39.3969 31.9897H37.8127C37.5054 30.7995 36.8123 29.7448 35.8418 28.9905C34.8713 28.2362 33.6781 27.8249 32.4489 27.8209V25.0417H39.3969V31.9897Z" fill="#FFC629"/>
</svg>
