<svg width="38" height="29" viewBox="0 0 38 29" fill="none" xmlns="http://www.w3.org/2000/svg">
<g id="Frame" clip-path="url(#clip0_927_7631)">
<path id="Vector" d="M15.4766 1.85938V5.85938" stroke="#FFC629" stroke-width="2" stroke-linecap="round" stroke-linejoin="round"/>
<path id="Vector_2" d="M5.47656 21.8594H15.4766V25.8594C15.4766 26.3898 15.2658 26.8985 14.8908 27.2736C14.5157 27.6487 14.007 27.8594 13.4766 27.8594H7.47656C6.94613 27.8594 6.43742 27.6487 6.06235 27.2736C5.68728 26.8985 5.47656 26.3898 5.47656 25.8594V21.8594Z" stroke="#FFC629" stroke-width="2" stroke-linecap="round" stroke-linejoin="round"/>
<path id="Vector_3" d="M19.4766 1.85938H1.47656V5.85938H19.4766V1.85938Z" stroke="#FFC629" stroke-width="2" stroke-linecap="round" stroke-linejoin="round"/>
<path id="Vector_4" d="M10.4766 5.85938H1.47656C2.29656 12.1394 3.28656 18.1294 5.47656 21.8594H15.4766C17.6666 18.1294 18.6566 12.1394 19.4766 5.85938H10.4766Z" stroke="#FFC629" stroke-width="2" stroke-linecap="round" stroke-linejoin="round"/>
<path id="Vector_5" d="M5.47656 1.85938V5.85938" stroke="#FFC629" stroke-width="2" stroke-linecap="round" stroke-linejoin="round"/>
<path id="Vector_6" d="M10.4766 1.85938V5.85938" stroke="#FFC629" stroke-width="2" stroke-linecap="round" stroke-linejoin="round"/>
<path id="Vector_7" d="M9.47656 24.8594H11.4766" stroke="#FFC629" stroke-width="2" stroke-linecap="round" stroke-linejoin="round"/>
<path id="Vector_8" d="M14.4766 10.8594H6.47656V14.8594H14.4766V10.8594Z" stroke="#FFC629" stroke-width="2" stroke-linecap="round" stroke-linejoin="round"/>
<path id="Vector_9" d="M26.4766 5.85938H33.4766C34.2722 5.85938 35.0353 6.17545 35.5979 6.73805C36.1605 7.30066 36.4766 8.06373 36.4766 8.85938V27.8594H23.4766V8.85938C23.4766 8.06373 23.7926 7.30066 24.3552 6.73805C24.9179 6.17545 25.6809 5.85938 26.4766 5.85938Z" stroke="#FFC629" stroke-width="2" stroke-linecap="round" stroke-linejoin="round"/>
<path id="Vector_10" d="M36.4766 15.8594H31.4766V23.8594H36.4766V15.8594Z" stroke="#FFC629" stroke-width="2" stroke-linecap="round" stroke-linejoin="round"/>
<path id="Vector_11" d="M23.4766 11.8594H35.4766" stroke="#FFC629" stroke-width="2" stroke-linecap="round" stroke-linejoin="round"/>
</g>
<defs>
<clipPath id="clip0_927_7631">
<rect width="37" height="28" fill="white" transform="translate(0.476562 0.859375)"/>
</clipPath>
</defs>
</svg>
