<?xml version="1.0" encoding="UTF-8"?><svg id="Layer_2" xmlns="http://www.w3.org/2000/svg" viewBox="0 0 45.72 39.17">
<defs>
    <style>
      .cls-1 {
        fill: none;
        stroke: #000000; /* Change the stroke color here */
        stroke-linecap: round;
        stroke-linejoin: round;
        stroke-width: 1.5px;
      }
    </style>
</defs>
<g id="Layer_1-2"><path class="cls-1" d="m.75,26.96h5.73c4.09,0,5.96-.82,7.54-.82.17,0,.36.05.56.14,1.8.82.91,1.94.91,3.95,0,7.79,5.17,8.19,6.21,8.19,2.62,0,5.25-1.77,5.25-5.73,0-1.98-.75-3.1-1.2-3.77-.14-.2-.25-.37-.32-.67-.21-.81.2-1.64.97-1.98.19-.08.39-.14.56-.14,1.59,0,3.28.82,7.37.82h10.65"/><path class="cls-1" d="m30.23.75s-11.47,17.61-11.47,29.48c0,3.74,1.4,4.91,2.94,4.91,1.28,0,1.98-.82,1.98-2.46,0-2.29-1.64-1.67-1.64-5.73C22.04,15.44,30.23.75,30.23.75"/><path class="cls-1" d="m16.31,17.95c-3.65,0-4.91-2.2-4.91-4.91,0,2.71-1.27,4.91-4.91,4.91,3.65,0,4.91,2.2,4.91,4.91,0-2.71,1.27-4.91,4.91-4.91Z"/><path class="cls-1" d="m22.86,5.66c-3.04,0-4.09-1.83-4.09-4.09,0,2.26-1.06,4.09-4.09,4.09,3.04,0,4.09,1.83,4.09,4.09,0-2.26,1.06-4.09,4.09-4.09Z"/><path class="cls-1" d="m35.97,18.77c-3.04,0-4.09-1.83-4.09-4.09,0,2.26-1.06,4.09-4.09,4.09,3.04,0,4.09,1.83,4.09,4.09,0-2.26,1.06-4.09,4.09-4.09Z"/></g></svg>