<?xml version="1.0" encoding="UTF-8"?><svg id="Layer_2" xmlns="http://www.w3.org/2000/svg" viewBox="0 0 31.13 36.7"><defs><style>.cls-1{fill:none;stroke:#212427;stroke-linecap:round;stroke-linejoin:round;stroke-width:1.5px;}</style></defs><g id="Layer_1-2"><path class="cls-1" d="m30.22,27.85c-1.05-2.25-3.84-4.59-3.84-10.26v-1.93c0-5.97-4.84-10.81-10.81-10.81h0c-5.97,0-10.81,4.84-10.81,10.81v1.93c0,5.67-2.8,8-3.84,10.26-.54,1.16.32,2.49,1.6,2.49h26.11c1.28,0,2.14-1.33,1.6-2.49Z"/><path class="cls-1" d="m19.21,4.85c0-2.26-1.63-4.1-3.64-4.1s-3.64,1.83-3.64,4.1"/><path class="cls-1" d="m10.34,30.72c0,2.89,2.34,5.23,5.23,5.23s5.23-2.34,5.23-5.23"/></g></svg>