<svg width="24" height="30" viewBox="0 0 25 24" fill="none" xmlns="http://www.w3.org/2000/svg">
<g clip-path="url(#clip0_2061_8081)">
<path d="M20.7571 16.92L18.9671 13.34C18.8871 13.16 18.8371 12.97 18.8371 12.78V10C18.8371 6.94 16.5471 4.42 13.5871 4.05V2.75C13.5871 2.34 13.2471 2 12.8371 2C12.4271 2 12.0871 2.34 12.0871 2.75V4.05C9.12709 4.42 6.83709 6.94 6.83709 10V12.78C6.83709 12.97 6.78709 13.16 6.70709 13.34L4.91709 16.92C4.79709 17.15 4.81709 17.42 4.94709 17.64C5.08709 17.87 5.32709 18 5.58709 18H9.83709V19C9.83709 20.65 11.1871 22 12.8371 22C14.4871 22 15.8371 20.65 15.8371 19V18H20.0871C20.3471 18 20.5871 17.87 20.7271 17.64C20.8571 17.42 20.8771 17.15 20.7571 16.92ZM14.3371 19C14.3371 19.83 13.6671 20.5 12.8371 20.5C12.0071 20.5 11.3371 19.83 11.3371 19V18H14.3371V19ZM6.79709 16.5L8.04709 14.01C8.23709 13.63 8.33709 13.2 8.33709 12.78V10C8.33709 7.52 10.3571 5.5 12.8371 5.5C15.3171 5.5 17.3371 7.52 17.3371 10V12.78C17.3371 13.2 17.4371 13.63 17.6271 14.01L18.8771 16.5H6.79709Z" fill="#121331"/>
</g>
<defs>
<clipPath id="clip0_2061_8081">
<rect width="24" height="24" fill="white" transform="translate(0.836914)"/>
</clipPath>
</defs>
</svg>
