<svg width="37" height="26" viewBox="0 0 37 26" fill="none" xmlns="http://www.w3.org/2000/svg">
<g id="fa6-solid:money-bill-1" clip-path="url(#clip0_895_8706)">
<path id="Vector" d="M15.7949 9.90356C15.7949 9.13657 16.3012 8.6145 17.0449 8.6145H18.0449C18.7324 8.6145 19.2949 9.13657 19.2949 9.90356V14.2864H19.5449C20.2324 14.2864 20.7949 14.8084 20.7949 15.5754C20.7949 16.2844 20.2324 16.8645 19.5449 16.8645H16.5449C15.8012 16.8645 15.2949 16.2844 15.2949 15.5754C15.2949 14.8084 15.8012 14.2864 16.5449 14.2864H16.7949V11.1668C16.2262 11.0444 15.7949 10.5288 15.7949 9.90356ZM32.0449 0.622314C34.2512 0.622314 36.0449 2.4689 36.0449 4.74731V21.2473C36.0449 23.5225 34.2512 25.3723 32.0449 25.3723H4.04492C1.83555 25.3723 0.0449219 23.5225 0.0449219 21.2473V4.74731C0.0449219 2.4689 1.83555 0.622314 4.04492 0.622314H32.0449ZM8.04492 21.2473C8.04492 18.9721 6.2543 17.1223 4.04492 17.1223V21.2473H8.04492ZM4.04492 8.87231C6.2543 8.87231 8.04492 7.02251 8.04492 4.74731H4.04492V8.87231ZM32.0449 21.2473V17.1223C29.8387 17.1223 28.0449 18.9721 28.0449 21.2473H32.0449ZM32.0449 4.74731H28.0449C28.0449 7.02251 29.8387 8.87231 32.0449 8.87231V4.74731ZM18.0449 5.77856C14.1762 5.77856 11.0449 9.00767 11.0449 12.9973C11.0449 16.987 14.1762 20.2161 18.0449 20.2161C21.9137 20.2161 25.0449 16.987 25.0449 12.9973C25.0449 9.00767 21.9137 5.77856 18.0449 5.77856Z" fill="#6FCF97"/>
</g>
<defs>
<clipPath id="clip0_895_8706">
<rect width="36" height="25" fill="white" transform="translate(0.681641 0.165771)"/>
</clipPath>
</defs>
</svg>
