<svg width="25" height="25" viewBox="0 0 25 25" fill="none" xmlns="http://www.w3.org/2000/svg">
<g clip-path="url(#clip0_1111_10407)">
<path d="M12.3459 16.7914C12.0059 16.7914 11.6559 16.7514 11.3159 16.6614C11.0459 16.5814 10.6759 16.4614 10.3259 16.2414C9.73595 15.9114 9.22595 15.4014 8.87595 14.7814C8.67595 14.4614 8.55595 14.0914 8.48595 13.8514C8.38595 13.4814 8.34595 13.1314 8.34595 12.7914C8.34595 12.4514 8.38595 12.1014 8.47595 11.7614C8.55595 11.4914 8.67595 11.1214 8.89595 10.7714C9.22595 10.1814 9.73595 9.67143 10.3559 9.32143C10.5859 9.17143 10.8959 9.04143 11.2859 8.92143C12.0159 8.73143 12.6859 8.74143 13.3659 8.91143C13.7859 9.03143 14.0859 9.16143 14.3559 9.33143C14.9459 9.66143 15.4559 10.1714 15.8059 10.7914C16.0059 11.1014 16.1259 11.4714 16.1959 11.7214C16.3059 12.1014 16.3459 12.4514 16.3459 12.7914C16.3459 13.1314 16.3059 13.4814 16.2159 13.8214C16.1359 14.0914 16.0159 14.4614 15.7959 14.8114C15.4659 15.4014 14.9559 15.9114 14.3359 16.2614C14.0159 16.4614 13.6459 16.5814 13.4059 16.6514C13.0359 16.7514 12.6859 16.7914 12.3459 16.7914ZM12.3459 10.2914C12.1359 10.2914 11.9159 10.3214 11.6959 10.3814C11.4559 10.4514 11.2759 10.5314 11.1259 10.6214C10.7159 10.8514 10.4059 11.1614 10.1959 11.5414C10.0859 11.7214 10.0059 11.9114 9.92595 12.1714C9.87595 12.3614 9.84595 12.5714 9.84595 12.7914C9.84595 13.0114 9.87595 13.2214 9.93595 13.4414C10.0059 13.6814 10.0859 13.8714 10.1759 14.0114C10.4059 14.4214 10.7159 14.7314 11.0959 14.9414C11.2759 15.0514 11.4659 15.1314 11.7259 15.2114C12.1159 15.3114 12.5659 15.3214 13.0059 15.2014C13.2459 15.1314 13.4359 15.0514 13.5759 14.9614C13.9859 14.7314 14.2959 14.4214 14.5059 14.0414C14.6159 13.8614 14.6959 13.6714 14.7759 13.4114C14.8259 13.2114 14.8559 13.0014 14.8559 12.7814C14.8559 12.5614 14.8259 12.3514 14.7659 12.1314C14.6959 11.8914 14.6159 11.7014 14.5259 11.5614C14.2959 11.1514 13.9859 10.8414 13.6059 10.6314C13.4259 10.5214 13.2359 10.4414 12.9759 10.3614C12.7759 10.3214 12.5559 10.2914 12.3459 10.2914Z" fill="#121331"/>
<path d="M12.3459 16.7914C12.0059 16.7914 11.6559 16.7514 11.3159 16.6614C11.0459 16.5814 10.6759 16.4614 10.3259 16.2414C9.73595 15.9114 9.22595 15.4014 8.87595 14.7814C8.67595 14.4614 8.55595 14.0914 8.48595 13.8514C8.38595 13.4814 8.34595 13.1314 8.34595 12.7914C8.34595 12.4514 8.38595 12.1014 8.47595 11.7614C8.55595 11.4914 8.67595 11.1214 8.89595 10.7714C9.22595 10.1814 9.73595 9.67143 10.3559 9.32143C10.5859 9.17143 10.8959 9.04143 11.2859 8.92143C12.0159 8.73143 12.6859 8.74143 13.3659 8.91143C13.7859 9.03143 14.0859 9.16143 14.3559 9.33143C14.9459 9.66143 15.4559 10.1714 15.8059 10.7914C16.0059 11.1014 16.1259 11.4714 16.1959 11.7214C16.3059 12.1014 16.3459 12.4514 16.3459 12.7914C16.3459 13.1314 16.3059 13.4814 16.2159 13.8214C16.1359 14.0914 16.0159 14.4614 15.7959 14.8114C15.4659 15.4014 14.9559 15.9114 14.3359 16.2614C14.0159 16.4614 13.6459 16.5814 13.4059 16.6514C13.0359 16.7514 12.6859 16.7914 12.3459 16.7914ZM12.3459 10.2914C12.1359 10.2914 11.9159 10.3214 11.6959 10.3814C11.4559 10.4514 11.2759 10.5314 11.1259 10.6214C10.7159 10.8514 10.4059 11.1614 10.1959 11.5414C10.0859 11.7214 10.0059 11.9114 9.92595 12.1714C9.87595 12.3614 9.84595 12.5714 9.84595 12.7914C9.84595 13.0114 9.87595 13.2214 9.93595 13.4414C10.0059 13.6814 10.0859 13.8714 10.1759 14.0114C10.4059 14.4214 10.7159 14.7314 11.0959 14.9414C11.2759 15.0514 11.4659 15.1314 11.7259 15.2114C12.1159 15.3114 12.5659 15.3214 13.0059 15.2014C13.2459 15.1314 13.4359 15.0514 13.5759 14.9614C13.9859 14.7314 14.2959 14.4214 14.5059 14.0414C14.6159 13.8614 14.6959 13.6714 14.7759 13.4114C14.8259 13.2114 14.8559 13.0014 14.8559 12.7814C14.8559 12.5614 14.8259 12.3514 14.7659 12.1314C14.6959 11.8914 14.6159 11.7014 14.5259 11.5614C14.2959 11.1514 13.9859 10.8414 13.6059 10.6314C13.4259 10.5214 13.2359 10.4414 12.9759 10.3614C12.7759 10.3214 12.5559 10.2914 12.3459 10.2914Z" fill="#121331"/>
<path d="M14.0959 22.7914H10.5959C9.90592 22.7914 9.34592 22.2314 9.34592 21.5414V20.2014C8.66592 19.9314 8.02592 19.5614 7.43592 19.0914L6.27592 19.7614C5.67592 20.1114 4.90592 19.9114 4.56592 19.3114L2.81592 16.2814C2.64592 15.9714 2.61592 15.6414 2.69592 15.3314C2.78592 15.0014 3.00592 14.7314 3.29592 14.5714L4.42592 13.9214C4.37592 13.5514 4.34592 13.1814 4.34592 12.7914C4.34592 12.4014 4.37592 12.0314 4.42592 11.6714L3.27592 11.0014C2.99592 10.8514 2.78592 10.5714 2.69592 10.2514C2.60592 9.94144 2.63592 9.61144 2.79592 9.32144L4.55592 6.27144C4.72592 5.98144 4.99592 5.77144 5.32592 5.69144C5.64592 5.61144 5.98592 5.65144 6.27592 5.82144L7.43592 6.49144C8.02592 6.02144 8.66592 5.65144 9.34592 5.38144V4.04144C9.34592 3.35144 9.90592 2.79144 10.5959 2.79144H14.0959C14.7859 2.79144 15.3459 3.35144 15.3459 4.04144V5.38144C16.0259 5.65144 16.6659 6.02144 17.2559 6.50144L18.4159 5.83144C18.7059 5.66144 19.0359 5.62144 19.3659 5.70144C19.6959 5.78144 19.9659 5.99144 20.1359 6.28144L21.8859 9.31144C22.0559 9.61144 22.0859 9.95144 22.0059 10.2614C21.9159 10.5914 21.6959 10.8614 21.4059 11.0214L20.2759 11.6814C20.3159 12.0314 20.3459 12.4014 20.3459 12.7914C20.3459 13.1814 20.3159 13.5514 20.2659 13.9114L21.4159 14.5714C21.7059 14.7314 21.9159 15.0014 22.0059 15.3314C22.0959 15.6514 22.0559 15.9814 21.8959 16.2614L20.1359 19.3114C19.7859 19.9114 19.0159 20.1114 18.4159 19.7614L17.2559 19.0914C16.6659 19.5614 16.0259 19.9314 15.3459 20.2014V21.5414C15.3459 22.2314 14.7859 22.7914 14.0959 22.7914ZM10.8459 21.2914H13.8459V19.6714C13.8459 19.3414 14.0559 19.0514 14.3759 18.9514C15.2159 18.6914 15.9859 18.2414 16.6659 17.6114C16.9059 17.3914 17.2659 17.3514 17.5459 17.5114L18.9559 18.3314L20.4559 15.7414L19.0559 14.9314C18.7659 14.7614 18.6259 14.4314 18.6959 14.1114C18.7859 13.7014 18.8359 13.2514 18.8359 12.7814C18.8359 12.3014 18.7859 11.8614 18.6959 11.4514C18.6259 11.1314 18.7659 10.8014 19.0559 10.6314L20.4559 9.82144L18.9559 7.23144L17.5459 8.05144C17.2659 8.21144 16.9059 8.18144 16.6659 7.95144C15.9859 7.32144 15.2159 6.87144 14.3759 6.61144C14.0659 6.51144 13.8459 6.22144 13.8459 5.89144V4.29144H10.8459V5.91144C10.8459 6.24144 10.6359 6.53144 10.3159 6.63144C9.47592 6.89144 8.70592 7.34144 8.02592 7.96144C7.78592 8.18144 7.42592 8.22144 7.14592 8.06144L5.72592 7.24144L4.22592 9.83144L5.62592 10.6414C5.91592 10.8014 6.05592 11.1414 5.98592 11.4614C5.89592 11.8714 5.84592 12.3114 5.84592 12.7914C5.84592 13.2714 5.89592 13.7114 5.98592 14.1214C6.05592 14.4414 5.91592 14.7714 5.62592 14.9414L4.22592 15.7514L5.72592 18.3414L7.13592 17.5214C7.42592 17.3514 7.77592 17.4014 8.01592 17.6214C8.69592 18.2514 9.47592 18.7014 10.3059 18.9614C10.6159 19.0614 10.8359 19.3514 10.8359 19.6814V21.2914H10.8459ZM4.03592 15.8614L4.02592 15.8714C4.02592 15.8714 4.02592 15.8714 4.03592 15.8614ZM20.6759 9.71144C20.6659 9.71144 20.6659 9.71144 20.6759 9.71144V9.71144ZM4.00592 9.70144L4.01592 9.71144L4.00592 9.70144ZM12.3459 16.7914C12.0059 16.7914 11.6559 16.7514 11.3159 16.6614C11.0459 16.5814 10.6759 16.4614 10.3259 16.2414C9.73592 15.9114 9.22592 15.4014 8.87592 14.7814C8.67592 14.4614 8.55592 14.0914 8.48592 13.8514C8.38592 13.4814 8.34592 13.1314 8.34592 12.7914C8.34592 12.4514 8.38592 12.1014 8.47592 11.7614C8.55592 11.4914 8.67592 11.1214 8.89592 10.7714C9.22592 10.1814 9.73592 9.67144 10.3559 9.32144C10.5859 9.17144 10.8959 9.04144 11.2859 8.92144C12.0159 8.73144 12.6859 8.74144 13.3659 8.91144C13.7859 9.03144 14.0859 9.16144 14.3559 9.33144C14.9459 9.66144 15.4559 10.1714 15.8059 10.7914C16.0059 11.1014 16.1259 11.4714 16.1959 11.7214C16.3059 12.1014 16.3459 12.4514 16.3459 12.7914C16.3459 13.1314 16.3059 13.4814 16.2159 13.8214C16.2159 13.8314 16.2159 13.8414 16.2059 13.8414C16.1359 14.0914 16.0059 14.4614 15.7959 14.8114C15.4659 15.4014 14.9559 15.9114 14.3359 16.2614C14.0159 16.4614 13.6459 16.5814 13.4059 16.6514C13.0359 16.7514 12.6859 16.7914 12.3459 16.7914ZM12.3459 10.2914C12.1359 10.2914 11.9159 10.3214 11.6959 10.3814C11.4559 10.4514 11.2759 10.5314 11.1259 10.6214C10.7159 10.8514 10.4059 11.1614 10.1959 11.5414C10.0859 11.7214 10.0059 11.9114 9.92592 12.1714C9.87592 12.3614 9.84592 12.5714 9.84592 12.7914C9.84592 13.0114 9.87592 13.2214 9.93592 13.4414C10.0059 13.6814 10.0859 13.8714 10.1759 14.0114C10.4059 14.4214 10.7159 14.7314 11.0959 14.9414C11.2759 15.0514 11.4659 15.1314 11.7259 15.2114C12.1159 15.3114 12.5659 15.3214 13.0059 15.2014C13.2459 15.1314 13.4359 15.0514 13.5759 14.9614C13.9859 14.7314 14.2959 14.4214 14.5059 14.0414C14.6159 13.8714 14.6959 13.6814 14.7659 13.4314C14.8259 13.2114 14.8459 13.0014 14.8459 12.7914C14.8459 12.5714 14.8159 12.3614 14.7559 12.1414C14.6859 11.9014 14.6059 11.7114 14.5159 11.5714C14.2859 11.1614 13.9759 10.8514 13.5959 10.6414C13.4159 10.5314 13.2259 10.4514 12.9659 10.3714C12.7759 10.3214 12.5559 10.2914 12.3459 10.2914Z" fill="#121331"/>
</g>
<defs>
<clipPath id="clip0_1111_10407">
<rect width="24" height="24" fill="white" transform="translate(0.345947 0.791443)"/>
</clipPath>
</defs>
</svg>
