<svg width="21" height="21" viewBox="0 0 21 21" fill="none" xmlns="http://www.w3.org/2000/svg">
<path d="M19.8689 17.4664L16.4462 14.0437C17.4114 12.6895 17.9854 11.0286 17.9854 9.25C17.9854 4.70386 14.2815 1 9.73535 1C5.18921 1 1.48535 4.70386 1.48535 9.25C1.48535 13.7961 5.18921 17.5 9.73535 17.5C11.5944 17.5 13.3178 16.8793 14.7067 15.8385L18.1018 19.2336C18.3505 19.4823 18.6699 19.6 18.9854 19.6C19.3008 19.6 19.6202 19.4823 19.8689 19.2336C20.3542 18.7483 20.3542 17.9517 19.8689 17.4664ZM3.98535 9.25C3.98535 6.07614 6.56149 3.5 9.73535 3.5C12.9092 3.5 15.4854 6.07614 15.4854 9.25C15.4854 10.805 14.8796 12.1999 13.8794 13.2288L13.8718 13.2364L13.8649 13.2434C13.8619 13.2465 13.8555 13.2531 13.8479 13.2614C13.8405 13.2697 13.8261 13.2861 13.8095 13.3095C12.7637 14.3579 11.3213 15 9.73535 15C6.56149 15 3.98535 12.4239 3.98535 9.25Z" fill="#FFC629" stroke="#FFC629"/>
</svg>
