<svg width="25" height="25" viewBox="0 0 25 25" fill="none" xmlns="http://www.w3.org/2000/svg">
<g id="41-home 1" clip-path="url(#clip0_1111_10341)">
<g id="design">
<path id="Vector" d="M19.5959 21.7914H16.5959C15.0759 21.7914 13.8459 20.5614 13.8459 19.0414V15.5414C13.8459 15.4014 13.7359 15.2914 13.5959 15.2914H11.0959C10.9559 15.2914 10.8459 15.4014 10.8459 15.5414V19.0414C10.8459 20.5614 9.61595 21.7914 8.09595 21.7914H5.09595C4.13595 21.7914 3.34595 21.0014 3.34595 20.0414V10.5614C3.34595 9.99143 3.62595 9.45143 4.09595 9.13143L11.3459 4.07143C11.9459 3.65143 12.7459 3.65143 13.3459 4.07143L20.5959 9.12143C21.0659 9.45143 21.3459 9.99143 21.3459 10.5614V20.0414C21.3459 21.0014 20.5559 21.7914 19.5959 21.7914ZM11.0959 13.7914H13.5959C14.5559 13.7914 15.3459 14.5814 15.3459 15.5414V19.0414C15.3459 19.7314 15.9059 20.2914 16.5959 20.2914H19.5959C19.7359 20.2914 19.8459 20.1814 19.8459 20.0414V10.5614C19.8459 10.4814 19.8059 10.4014 19.7359 10.3514L12.4859 5.30143C12.3959 5.24143 12.2859 5.24143 12.1959 5.30143L4.95595 10.3614C4.88595 10.4014 4.84595 10.4814 4.84595 10.5614V20.0414C4.84595 20.1814 4.95595 20.2914 5.09595 20.2914H8.09595C8.78595 20.2914 9.34595 19.7314 9.34595 19.0414V15.5414C9.34595 14.5814 10.1359 13.7914 11.0959 13.7914Z" fill="#121331"/>
</g>
</g>
<defs>
<clipPath id="clip0_1111_10341">
<rect width="24" height="24" fill="white" transform="translate(0.345947 0.791428)"/>
</clipPath>
</defs>
</svg>
