<svg width="12" height="12" viewBox="0 0 19 19" fill="none" xmlns="http://www.w3.org/2000/svg">
<path d="M18.5371 16.1951L16.8771 6.69512C16.7371 5.85512 16.0071 5.24512 15.1571 5.24512H13.7471V4.24512C13.7471 2.03512 11.9571 0.245117 9.74706 0.245117C7.53706 0.245117 5.74706 2.03512 5.74706 4.24512V5.24512H4.33706C3.48706 5.24512 2.75706 5.85512 2.61706 6.69512L0.957061 16.1951C0.877061 16.7051 1.01706 17.2251 1.34706 17.6251C1.67706 18.0151 2.16706 18.2451 2.68706 18.2451H16.8071C17.3271 18.2451 17.8171 18.0151 18.1471 17.6251C18.4771 17.2251 18.6171 16.7051 18.5371 16.1951ZM7.24706 4.24512C7.24706 2.86512 8.36706 1.74512 9.74706 1.74512C11.1271 1.74512 12.2471 2.86512 12.2471 4.24512V5.24512H7.24706V4.24512ZM16.9971 16.6551C16.9671 16.6851 16.9071 16.7451 16.8071 16.7451H2.68706C2.58706 16.7451 2.52706 16.6851 2.49706 16.6551C2.46706 16.6251 2.41706 16.5551 2.43706 16.4551L4.08706 6.95512C4.11706 6.83512 4.21706 6.74512 4.33706 6.74512H5.74706V6.49512C5.74706 6.90512 6.08706 7.24512 6.49706 7.24512C6.90706 7.24512 7.24706 6.90512 7.24706 6.49512V6.74512H12.2471V6.49512C12.2471 6.90512 12.5871 7.24512 12.9971 7.24512C13.4071 7.24512 13.7471 6.90512 13.7471 6.49512V6.74512H15.1571C15.2771 6.74512 15.3771 6.83512 15.3971 6.95512L17.0571 16.4551C17.0671 16.5551 17.0271 16.6251 16.9971 16.6551Z" fill="#121331"/>
</svg>
