<svg width="20" height="20" viewBox="0 0 20 20" fill="none" xmlns="http://www.w3.org/2000/svg">
<g clip-path="url(#clip0_1111_10349)">
<path d="M10.0668 1.61312C9.92505 1.5563 9.76684 1.5563 9.62507 1.61312L2.53807 4.44768L9.84595 7.37012L17.1538 4.44768L10.0668 1.61312ZM18.1584 5.32524L10.4397 8.41274L10.4397 17.8201L18.1584 14.7326V5.32643V5.32524ZM9.2522 17.8213L9.2522 8.41155L1.53345 5.32524L1.53345 14.7338L9.2522 17.8213ZM9.18451 0.509928C9.60912 0.340115 10.0828 0.340115 10.5074 0.509928L18.9731 3.89668C19.0831 3.94079 19.1775 4.01684 19.2439 4.11505C19.3104 4.21325 19.3459 4.3291 19.3459 4.44768V14.7338C19.3458 14.9711 19.2746 15.2029 19.1414 15.3993C19.0083 15.5957 18.8194 15.7478 18.599 15.8358L10.0668 19.2487C9.92505 19.3055 9.76684 19.3055 9.62507 19.2487L1.09407 15.8358C0.873496 15.748 0.684316 15.596 0.55096 15.3996C0.417603 15.2031 0.346192 14.9712 0.345947 14.7338L0.345947 4.44768C0.345975 4.3291 0.381505 4.21325 0.447962 4.11505C0.514418 4.01684 0.608756 3.94079 0.718822 3.89668L9.18451 0.509928Z" fill="black"/>
</g>
<defs>
<clipPath id="clip0_1111_10349">
<rect width="19" height="19" fill="white" transform="translate(0.345947 0.291428)"/>
</clipPath>
</defs>
</svg>
