<svg width="18" height="20" viewBox="0 0 18 20" fill="none" xmlns="http://www.w3.org/2000/svg">
<path d="M6.25 19.2451C6.1 19.2451 5.95 19.1951 5.82 19.1051C5.62 18.9651 5.5 18.7351 5.5 18.4951V10.8551L0.84 6.37512C0.31 5.85512 0 5.13512 0 4.39512V0.995117C0 0.585117 0.34 0.245117 0.75 0.245117H17.25C17.66 0.245117 18 0.585117 18 0.995117V4.39512C18 5.13512 17.69 5.86512 17.16 6.37512L12.5 10.8551V16.4951C12.5 16.8151 12.3 17.0951 12.01 17.2051L6.51 19.2051C6.42 19.2351 6.34 19.2451 6.25 19.2451ZM1.5 1.74512V4.39512C1.5 4.73512 1.64 5.06512 1.88 5.29512L6.77 9.99512C6.92 10.1351 7 10.3351 7 10.5351V17.4251L11 15.9651V10.5351C11 10.3351 11.08 10.1351 11.23 9.99512L16.12 5.29512C16.36 5.06512 16.5 4.73512 16.5 4.39512V1.74512H1.5Z" fill="#121331"/>
</svg>
