<svg width="37" height="36" viewBox="0 0 37 36" fill="none" xmlns="http://www.w3.org/2000/svg">
<path d="M18.1806 29.559C19.6099 29.559 20.7685 28.4004 20.7685 26.9712C20.7685 25.5419 19.6099 24.3833 18.1806 24.3833C16.7514 24.3833 15.5928 25.5419 15.5928 26.9712C15.5928 28.4004 16.7514 29.559 18.1806 29.559Z" stroke="#FFC629" stroke-width="2" stroke-linecap="round" stroke-linejoin="round"/>
<path d="M9.12302 29.559C10.5523 29.559 11.7109 28.4004 11.7109 26.9712C11.7109 25.5419 10.5523 24.3833 9.12302 24.3833C7.69378 24.3833 6.53516 25.5419 6.53516 26.9712C6.53516 28.4004 7.69378 29.559 9.12302 29.559Z" stroke="#FFC629" stroke-width="2" stroke-linecap="round" stroke-linejoin="round"/>
<path d="M27.2383 29.559C28.6675 29.559 29.8261 28.4004 29.8261 26.9712C29.8261 25.5419 28.6675 24.3833 27.2383 24.3833C25.809 24.3833 24.6504 25.5419 24.6504 26.9712C24.6504 28.4004 25.809 29.559 27.2383 29.559Z" stroke="#FFC629" stroke-width="2" stroke-linecap="round" stroke-linejoin="round"/>
<path d="M18.1806 20.5014C19.6099 20.5014 20.7685 19.3428 20.7685 17.9136C20.7685 16.4843 19.6099 15.3257 18.1806 15.3257C16.7514 15.3257 15.5928 16.4843 15.5928 17.9136C15.5928 19.3428 16.7514 20.5014 18.1806 20.5014Z" stroke="#FFC629" stroke-width="2" stroke-linecap="round" stroke-linejoin="round"/>
<path d="M9.12302 20.5014C10.5523 20.5014 11.7109 19.3428 11.7109 17.9136C11.7109 16.4843 10.5523 15.3257 9.12302 15.3257C7.69378 15.3257 6.53516 16.4843 6.53516 17.9136C6.53516 19.3428 7.69378 20.5014 9.12302 20.5014Z" stroke="#FFC629" stroke-width="2" stroke-linecap="round" stroke-linejoin="round"/>
<path d="M27.2383 20.5014C28.6675 20.5014 29.8261 19.3428 29.8261 17.9136C29.8261 16.4843 28.6675 15.3257 27.2383 15.3257C25.809 15.3257 24.6504 16.4843 24.6504 17.9136C24.6504 19.3428 25.809 20.5014 27.2383 20.5014Z" stroke="#FFC629" stroke-width="2" stroke-linecap="round" stroke-linejoin="round"/>
<path d="M1.35938 10.1504H35.0017V30.8533C35.0017 31.8829 34.5927 32.8702 33.8647 33.5982C33.1367 34.3262 32.1494 34.7351 31.1199 34.7351H5.24118C4.21166 34.7351 3.22432 34.3262 2.49635 33.5982C1.76837 32.8702 1.35938 31.8829 1.35938 30.8533V10.1504Z" stroke="#FFC629" stroke-width="2" stroke-linecap="round" stroke-linejoin="round"/>
<path d="M3.94724 1.09277H32.4138C33.1001 1.09277 33.7584 1.36542 34.2437 1.85074C34.729 2.33606 35.0017 2.9943 35.0017 3.68064V6.26851H1.35938V3.68064C1.35938 2.9943 1.63202 2.33606 2.11734 1.85074C2.60266 1.36542 3.2609 1.09277 3.94724 1.09277Z" stroke="#FFC629" stroke-width="2" stroke-linecap="round" stroke-linejoin="round"/>
<path d="M5.24121 10.1499V6.26807" stroke="#FFC629" stroke-width="2" stroke-linecap="round" stroke-linejoin="round"/>
<path d="M31.1201 10.1499V6.26807" stroke="#FFC629" stroke-width="2" stroke-linecap="round" stroke-linejoin="round"/>
</svg>
