<svg width="42" height="40" viewBox="0 0 42 40" fill="none" xmlns="http://www.w3.org/2000/svg">
<path d="M13.0729 18.7797C13.0729 19.4731 12.7975 20.1382 12.3071 20.6285C11.8168 21.1188 11.1518 21.3943 10.4583 21.3943C9.7649 21.3943 9.09987 21.1188 8.60954 20.6285C8.11921 20.1382 7.84375 19.4731 7.84375 18.7797C7.84375 18.0863 8.11921 17.4212 8.60954 16.9309C9.09987 16.4406 9.7649 16.1651 10.4583 16.1651C11.1518 16.1651 11.8168 16.4406 12.3071 16.9309C12.7975 17.4212 13.0729 18.0863 13.0729 18.7797ZM23.5313 18.7797C23.5313 19.4731 23.2558 20.1382 22.7655 20.6285C22.2751 21.1188 21.6101 21.3943 20.9167 21.3943C20.2232 21.3943 19.5582 21.1188 19.0679 20.6285C18.5776 20.1382 18.3021 19.4731 18.3021 18.7797C18.3021 18.0863 18.5776 17.4212 19.0679 16.9309C19.5582 16.4406 20.2232 16.1651 20.9167 16.1651C21.6101 16.1651 22.2751 16.4406 22.7655 16.9309C23.2558 17.4212 23.5313 18.0863 23.5313 18.7797ZM31.375 21.3943C32.0685 21.3943 32.7335 21.1188 33.2238 20.6285C33.7141 20.1382 33.9896 19.4731 33.9896 18.7797C33.9896 18.0863 33.7141 17.4212 33.2238 16.9309C32.7335 16.4406 32.0685 16.1651 31.375 16.1651C30.6816 16.1651 30.0166 16.4406 29.5262 16.9309C29.0359 17.4212 28.7604 18.0863 28.7604 18.7797C28.7604 19.4731 29.0359 20.1382 29.5262 20.6285C30.0166 21.1188 30.6816 21.3943 31.375 21.3943Z" fill="#FFC629"/>
<path d="M5.66058 39.1813L5.71287 39.1708C10.4976 38.2217 13.4207 36.9694 14.7803 36.2817C16.7819 36.8156 18.845 37.0846 20.9167 37.0818C32.4679 37.0818 41.8334 28.8877 41.8334 18.7797C41.8334 8.6717 32.4679 0.477585 20.9167 0.477585C9.36545 0.477585 0 8.6717 0 18.7797C0 23.3814 1.94264 27.5908 5.15073 30.8068C4.92629 32.8726 4.46663 34.9059 3.78069 36.8674L3.77285 36.8961C3.57791 37.4579 3.36515 38.0134 3.13489 38.5616C2.92834 39.048 3.32837 39.5918 3.84867 39.5081C4.45437 39.409 5.05842 39.3 5.66058 39.1813ZM7.75225 31.0552C7.78887 30.6724 7.74061 30.2862 7.61091 29.9242C7.4812 29.5622 7.27325 29.2333 7.00186 28.9609C4.2304 26.179 2.61459 22.6179 2.61459 18.7797C2.61459 10.4339 10.4688 3.09217 20.9167 3.09217C31.3646 3.09217 39.2188 10.4339 39.2188 18.7797C39.2188 27.1281 31.3646 34.4672 20.9167 34.4672C19.0737 34.4699 17.2383 34.2308 15.4574 33.756C14.8351 33.5893 14.1731 33.6582 13.5985 33.9495C12.5866 34.462 10.3564 35.4398 6.71164 36.2843C7.22012 34.5774 7.56849 32.8267 7.75225 31.0552Z" fill="#FFC629"/>
</svg>
