<svg width="21" height="26" viewBox="0 0 21 16" fill="none" xmlns="http://www.w3.org/2000/svg">
<path d="M13.5869 16H1.08691C0.676914 16 0.336914 15.66 0.336914 15.25V6.75C0.336914 3.03 3.36691 0 7.08691 0H13.5869C17.3069 0 20.3369 3.03 20.3369 6.75V9.25C20.3369 12.97 17.3069 16 13.5869 16ZM1.83691 14.5H13.5869C16.4769 14.5 18.8369 12.14 18.8369 9.25V6.75C18.8369 3.85 16.4769 1.5 13.5869 1.5H7.08691C4.19691 1.5 1.83691 3.85 1.83691 6.75V14.5Z" fill="#121331"/>
<path d="M6.33691 9.0002C6.07691 9.0002 5.81691 8.8902 5.62691 8.7102C5.44691 8.5202 5.33691 8.2602 5.33691 8.0002C5.33691 7.7302 5.44691 7.4802 5.62691 7.2902C5.99691 6.9202 6.67691 6.9202 7.04691 7.2902C7.08691 7.3402 7.12691 7.39019 7.16691 7.44019C7.20691 7.50019 7.23691 7.5602 7.25691 7.6202C7.28691 7.6802 7.30691 7.7402 7.31691 7.8002C7.32691 7.8702 7.33691 7.9402 7.33691 8.0002C7.33691 8.0602 7.32691 8.1302 7.31691 8.2002C7.30691 8.2602 7.28691 8.3202 7.25691 8.3802C7.23691 8.4402 7.20691 8.5002 7.16691 8.5502C7.12691 8.6102 7.08691 8.6602 7.04691 8.7102C6.85691 8.8902 6.59691 9.0002 6.33691 9.0002Z" fill="#121331"/>
<path d="M10.3369 9C10.2069 9 10.0769 8.97 9.95691 8.92C9.82691 8.87 9.72691 8.8 9.62691 8.71C9.44691 8.52 9.33691 8.26 9.33691 8C9.33691 7.87 9.36691 7.74 9.41691 7.62C9.46691 7.49 9.53691 7.39 9.62691 7.29C9.72691 7.2 9.82691 7.13 9.95691 7.08C10.1369 7 10.3369 6.98 10.5269 7.02C10.5969 7.03 10.6569 7.05 10.7169 7.08C10.7769 7.1 10.8369 7.13 10.8869 7.17C10.9469 7.2 10.9969 7.25 11.0469 7.29C11.1369 7.39 11.2069 7.49 11.2569 7.62C11.3069 7.74 11.3369 7.87 11.3369 8C11.3369 8.26 11.2269 8.52 11.0469 8.71C10.9969 8.75 10.9469 8.8 10.8869 8.83C10.8369 8.87 10.7769 8.9 10.7169 8.92C10.6569 8.95 10.5969 8.97 10.5269 8.98C10.4669 8.99 10.3969 9 10.3369 9Z" fill="#121331"/>
<path d="M14.3369 9.00001C14.2769 9.00001 14.2069 8.99001 14.1469 8.98001C14.0769 8.97001 14.0169 8.95001 13.9569 8.92001C13.8969 8.90001 13.8369 8.87001 13.7769 8.83001C13.7269 8.79001 13.6769 8.75001 13.6269 8.71001C13.4469 8.52001 13.3369 8.27001 13.3369 8.00001C13.3369 7.87001 13.3669 7.74001 13.4169 7.62001C13.4669 7.50001 13.5369 7.39001 13.6269 7.29001C13.6769 7.25001 13.7269 7.21001 13.7769 7.17001C13.8369 7.13001 13.8969 7.10001 13.9569 7.08001C14.0169 7.05001 14.0769 7.03001 14.1469 7.02001C14.4669 6.96001 14.8069 7.06001 15.0469 7.29001C15.2269 7.48001 15.3369 7.74001 15.3369 8.00001C15.3369 8.06001 15.3269 8.13001 15.3169 8.20001C15.3069 8.26001 15.2869 8.32001 15.2569 8.38001C15.2369 8.44001 15.2069 8.50001 15.1669 8.56001C15.1269 8.61001 15.0869 8.66001 15.0469 8.71001C14.8569 8.89001 14.5969 9.00001 14.3369 9.00001Z" fill="#121331"/>
</svg>
