<svg xmlns="http://www.w3.org/2000/svg" version="1.1" xmlns:xlink="http://www.w3.org/1999/xlink" width="512" height="512" x="0" y="0" viewBox="0 0 512 512" style="enable-background:new 0 0 512 512" xml:space="preserve" class=""><g transform="matrix(1.0000000000000004,0,0,1.0000000000000004,-1.1368683772161603e-13,-5.684341886080802e-14)"><path fill="#ffcd25" d="M445.431 447.873H66.568C35.327 447.873 10 422.546 10 391.305v-270.61c0-31.242 25.327-56.569 56.569-56.569h378.863c31.242 0 56.569 25.327 56.569 56.569v270.609c-.001 31.242-25.328 56.569-56.57 56.569z" opacity="1" data-original="#ffcc36" class=""></path><path d="M445.432 54.127H66.568C29.862 54.127 0 83.989 0 120.695v270.609c0 36.706 29.862 66.568 66.568 66.568H211c5.523 0 10-4.477 10-10s-4.477-10-10-10H66.568C40.891 437.873 20 416.982 20 391.305v-270.61c0-25.678 20.891-46.568 46.568-46.568h378.863c25.678 0 46.568 20.891 46.568 46.568v270.609c0 25.678-20.891 46.568-46.568 46.568H301c-5.523 0-10 4.477-10 10s4.477 10 10 10h144.432c36.706 0 66.568-29.862 66.568-66.568V120.695c0-36.706-29.862-66.568-66.568-66.568z" fill="#000000" opacity="1" data-original="#000000" class=""></path><path d="M71.4 158.437c5.392 0 10.217 3.54 11.734 8.609 1.583 5.291 7.154 8.298 12.447 6.713 5.291-1.583 8.297-7.156 6.713-12.447-4.03-13.469-16.734-22.875-30.895-22.875-17.77 0-32.227 14.356-32.227 32.001v35.187c0 17.646 14.457 32.001 32.227 32.001 14.126 0 26.822-9.378 30.874-22.806 1.595-5.288-1.397-10.867-6.685-12.463-5.289-1.595-10.867 1.397-12.463 6.685-1.525 5.054-6.347 8.584-11.727 8.584-6.742 0-12.227-5.384-12.227-12.001v-35.187c.003-6.617 5.488-12.001 12.229-12.001zM178.028 203.237v-30.41c0-19.186-15.609-34.795-34.795-34.795h-.253c-19.186 0-34.795 15.609-34.795 34.795v30.41c0 19.186 15.609 34.795 34.795 34.795h.253c19.186 0 34.795-15.609 34.795-34.795zm-20 0c0 8.158-6.637 14.795-14.795 14.795h-.253c-8.158 0-14.795-6.637-14.795-14.795v-30.41c0-8.158 6.637-14.795 14.795-14.795h.253c8.158 0 14.795 6.637 14.795 14.795zM192.232 237.493c5.447.902 10.596-2.786 11.498-8.235l6.61-39.97 10.83 39.748c.031.112.063.225.098.336 1.541 4.962 6.062 8.3 11.172 8.254 5.144-.025 9.602-3.387 11.094-8.365.033-.108.063-.216.092-.326l10.456-39.713 7.026 40.129c.851 4.857 5.072 8.277 9.838 8.277.572 0 1.153-.049 1.736-.151 5.44-.953 9.078-6.135 8.125-11.575l-13.615-77.758-.022-.124c-1.006-5.35-5.464-9.284-10.841-9.567-5.36-.276-10.197 3.152-11.755 8.351a8.597 8.597 0 0 0-.091.324l-12.237 46.48-12.691-46.576a7.851 7.851 0 0 0-.097-.332c-1.607-5.184-6.474-8.574-11.835-8.236-5.377.336-9.797 4.317-10.75 9.68l-.021.118-12.855 77.734c-.901 5.448 2.786 10.595 8.235 11.497zM302.825 237.265c5.523 0 10-4.477 10-10v-78.467c0-5.523-4.477-10-10-10s-10 4.477-10 10v78.467c0 5.523 4.477 10 10 10zM388.466 138.032c-5.523 0-10 4.477-10 10v49.248l-37.831-54.781a10 10 0 0 0-18.229 5.683v79.851c0 5.523 4.477 10 10 10s10-4.477 10-10V180.26l35.765 51.79c2.939 4.246 7.842 6.05 12.487 4.599 4.743-1.481 7.807-5.922 7.807-11.312v-77.304c.001-5.524-4.476-10.001-9.999-10.001zM441.512 158.032c5.379 0 10.201 3.595 11.726 8.743 1.569 5.296 7.134 8.313 12.428 6.749 5.295-1.569 8.317-7.133 6.749-12.428-4.022-13.58-16.73-23.063-30.903-23.063-17.77 0-32.227 14.457-32.227 32.227v35.546c0 17.77 14.457 32.227 32.227 32.227 14.139 0 26.838-9.455 30.882-22.993.277-.929.418-1.893.418-2.862v-19.544c0-5.523-4.477-10-10-10h-9.257c-5.523 0-10 4.477-10 10 0 5.273 4.081 9.593 9.257 9.973v7.884c-1.871 4.497-6.353 7.543-11.3 7.543-6.742 0-12.227-5.485-12.227-12.227v-35.546c0-6.744 5.485-12.229 12.227-12.229zM210.97 273.968h-.253c-19.186 0-34.795 15.609-34.795 34.795v30.41c0 19.186 15.609 34.795 34.795 34.795h.253c19.186 0 34.795-15.609 34.795-34.795v-30.41c0-19.186-15.609-34.795-34.795-34.795zm14.795 65.205c0 8.158-6.637 14.795-14.795 14.795h-.253c-8.158 0-14.795-6.637-14.795-14.795v-30.41c0-8.158 6.637-14.795 14.795-14.795h.253c8.158 0 14.795 6.637 14.795 14.795zM295.881 373.968c19.186 0 34.795-15.609 34.795-34.795v-30.41c0-19.186-15.609-34.795-34.795-34.795h-.253c-19.186 0-34.795 15.609-34.795 34.795v30.41c0 19.186 15.609 34.795 34.795 34.795zm-15.048-34.795v-30.41c0-8.158 6.637-14.795 14.795-14.795h.253c8.158 0 14.795 6.637 14.795 14.795v30.41c0 8.158-6.637 14.795-14.795 14.795h-.253c-8.158 0-14.795-6.637-14.795-14.795zM401.603 283.968v49.249l-37.831-54.782a10 10 0 0 0-18.229 5.683v79.851c0 5.523 4.477 10 10 10s10-4.477 10-10v-47.772l35.765 51.79c2.939 4.244 7.837 6.05 12.488 4.599 4.743-1.481 7.807-5.922 7.807-11.312V283.97c0-5.523-4.477-10-10-10s-10 4.475-10 9.998zM128.276 373.968c16.859 0 31.017-10.758 33.664-25.581 1.992-11.154-3.072-25.726-23.256-33.171-9.826-3.624-18.975-7.571-21.783-8.801-2.177-1.75-2.104-4.189-1.958-5.206.203-1.412 1.229-4.863 6.364-6.409 11.262-3.395 21.703 4.839 22.015 5.089 4.229 3.506 10.499 2.948 14.039-1.263 3.554-4.228 3.007-10.536-1.22-14.089-.755-.635-18.747-15.47-40.602-8.888-11.044 3.327-18.857 12.032-20.392 22.718-1.439 10.026 2.906 19.671 11.342 25.171.442.288 12.867 5.866 25.274 10.442 3.508 1.294 11.551 4.945 10.489 10.892-.798 4.471-6.244 9.096-13.975 9.096-7.952 0-15.604-3.205-20.468-8.574-3.709-4.093-10.033-4.404-14.125-.695-4.093 3.708-4.404 10.033-.695 14.125 8.592 9.483 21.783 15.144 35.287 15.144z" fill="#000000" opacity="1" data-original="#000000" class=""></path><circle cx="256.003" cy="447.873" r="10" fill="#000000" opacity="1" data-original="#000000" class=""></circle></g></svg>