<svg width="52" height="53" viewBox="0 0 52 53" fill="none" xmlns="http://www.w3.org/2000/svg">
<path fill-rule="evenodd" clip-rule="evenodd" d="M25.2715 18.2728C25.4975 18.1595 25.7468 18.1006 25.9995 18.1006C26.2523 18.1006 26.5016 18.1595 26.7275 18.2728L46.2275 28.0228C46.42 28.1174 46.5919 28.2491 46.7332 28.4104C46.8745 28.5718 46.9824 28.7595 47.0509 28.9627C47.1193 29.166 47.1468 29.3807 47.1318 29.5947C47.1168 29.8086 47.0597 30.0175 46.9636 30.2092C46.8675 30.4009 46.7344 30.5717 46.572 30.7118C46.4096 30.8518 46.2211 30.9584 46.0173 31.0252C45.8135 31.0921 45.5985 31.1179 45.3847 31.1013C45.1709 31.0846 44.9625 31.0258 44.7715 30.9283L25.9995 21.5455L7.22753 30.9283C7.03655 31.0258 6.82815 31.0846 6.61434 31.1013C6.40053 31.1179 6.18554 31.0921 5.98177 31.0252C5.77799 30.9584 5.58947 30.8518 5.42706 30.7118C5.26465 30.5717 5.13157 30.4009 5.03549 30.2092C4.93941 30.0175 4.88223 29.8086 4.86725 29.5947C4.85227 29.3807 4.87979 29.166 4.94821 28.9627C5.01663 28.7595 5.12461 28.5718 5.26592 28.4104C5.40722 28.2491 5.57907 28.1174 5.77153 28.0228L25.2715 18.2728Z" fill="#E4E4E4"/>
</svg>
