<svg width="33" height="32" viewBox="0 0 33 32" fill="none" xmlns="http://www.w3.org/2000/svg">
<path d="M16.8129 31.7861C16.0529 31.7861 15.3404 31.4853 14.8021 30.9469L11.9679 28.1128C11.8729 28.0178 11.7621 27.9703 11.6354 27.9703H7.6296C6.0621 27.9703 4.7796 26.6878 4.7796 25.1203V21.1144C4.7796 20.9878 4.7321 20.8769 4.6371 20.7819L1.80293 17.9478C0.694596 16.8394 0.694596 15.0344 1.80293 13.9261L4.6371 11.0919C4.7321 11.0128 4.7796 10.9019 4.7796 10.7753V6.76942C4.7796 5.20192 6.0621 3.91942 7.6296 3.91942H11.6354C11.7621 3.91942 11.8729 3.87192 11.9679 3.77692L14.8021 0.942754C15.8788 -0.133913 17.7471 -0.133913 18.8238 0.942754L21.6579 3.77692C21.7529 3.87192 21.8638 3.91942 21.9904 3.91942H25.9963C27.5638 3.91942 28.8463 5.20192 28.8463 6.76942V10.7753C28.8463 10.9019 28.8938 11.0128 28.9888 11.1078L31.8229 13.9419C32.3454 14.4803 32.6463 15.1928 32.6463 15.9528C32.6463 16.7128 32.3454 17.4253 31.8071 17.9636L28.9729 20.7978C28.8779 20.8928 28.8304 21.0036 28.8304 21.1303V25.1361C28.8304 26.7036 27.5479 27.9861 25.9804 27.9861H21.9746C21.8479 27.9861 21.7371 28.0336 21.6421 28.1286L18.8079 30.9628C18.2854 31.4853 17.5729 31.7861 16.8129 31.7861ZM7.6296 6.29442C7.37626 6.29442 7.1546 6.50025 7.1546 6.76942V10.7753C7.1546 11.5353 6.85376 12.2478 6.31543 12.7861L3.48126 15.6203C3.29126 15.8103 3.29126 16.0953 3.48126 16.2853L6.33126 19.1194C6.85376 19.6419 7.17043 20.3861 7.17043 21.1303V25.1361C7.17043 25.3894 7.37626 25.6111 7.64543 25.6111H11.6513C12.4113 25.6111 13.1238 25.9119 13.6621 26.4503L16.4963 29.2844C16.6229 29.4111 16.7496 29.4269 16.8288 29.4269C16.8921 29.4269 17.0346 29.4111 17.1613 29.2844L19.9796 26.4344C20.5021 25.9119 21.2463 25.5953 21.9904 25.5953H25.9963C26.2496 25.5953 26.4713 25.3894 26.4713 25.1203V21.1144C26.4713 20.3703 26.7721 19.6261 27.3104 19.1036L30.1446 16.2694C30.2713 16.1428 30.2871 16.0161 30.2871 15.9369C30.2871 15.8578 30.2713 15.7311 30.1446 15.6044L27.2946 12.7861C26.7563 12.2478 26.4554 11.5353 26.4554 10.7753V6.76942C26.4554 6.51609 26.2496 6.29442 25.9804 6.29442H21.9746C21.2304 6.29442 20.4863 5.99359 19.9638 5.45525L17.1296 2.62109C16.8921 2.38359 16.7021 2.38359 16.4646 2.62109L13.6463 5.47109C13.1079 6.00942 12.3954 6.29442 11.6354 6.29442H7.6296Z" fill="#FFC629"/>
<path d="M11.6669 22.2862C11.3661 22.2862 11.0653 22.1754 10.8278 21.9379C10.3686 21.4787 10.3686 20.7187 10.8278 20.2596L21.1194 9.96791C21.5786 9.50874 22.3386 9.50874 22.7978 9.96791C23.2569 10.4271 23.2569 11.1871 22.7978 11.6462L12.5061 21.9379C12.2686 22.1754 11.9678 22.2862 11.6669 22.2862Z" fill="#FFC629"/>
<path d="M12.0628 12.7863C11.857 12.7863 11.6512 12.7388 11.4612 12.6596C11.2712 12.5805 11.097 12.4696 10.9387 12.3271C10.7962 12.1688 10.6853 12.0105 10.6062 11.8046C10.5112 11.6146 10.4795 11.4088 10.4795 11.203C10.4795 10.9971 10.5112 10.7913 10.6062 10.6013C10.6853 10.3955 10.7962 10.2371 10.9387 10.0788C11.097 9.93629 11.2712 9.82546 11.4612 9.74629C11.7462 9.61963 12.0628 9.58796 12.3795 9.6513C12.4745 9.66713 12.5695 9.69879 12.6645 9.74629C12.7595 9.77796 12.8545 9.82546 12.9495 9.8888C13.0287 9.95213 13.1078 10.0155 13.187 10.0788C13.3295 10.2371 13.4403 10.4113 13.5195 10.6013C13.6145 10.7913 13.6462 10.9971 13.6462 11.203C13.6462 11.6146 13.472 12.0263 13.187 12.3271C13.1078 12.3905 13.0287 12.4538 12.9495 12.5171C12.8545 12.5805 12.7595 12.628 12.6645 12.6596C12.5695 12.7071 12.4745 12.7388 12.3795 12.7546C12.2687 12.7705 12.1737 12.7863 12.0628 12.7863Z" fill="#FFC629"/>
<path d="M21.5628 22.2863C21.1353 22.2863 20.7395 22.128 20.4387 21.8271C20.2962 21.6688 20.1853 21.4946 20.1062 21.3046C20.027 21.1146 19.9795 20.9088 19.9795 20.703C19.9795 20.608 19.9953 20.4971 20.0112 20.4021C20.027 20.2913 20.0587 20.1963 20.1062 20.1013C20.1378 20.0063 20.1853 19.9113 20.2487 19.8321C20.312 19.7371 20.3753 19.658 20.4387 19.5788C20.5178 19.5155 20.597 19.4521 20.692 19.3888C20.7712 19.3255 20.8662 19.278 20.9612 19.2463C21.0562 19.1988 21.1512 19.1671 21.262 19.1513C21.5628 19.088 21.8795 19.1196 22.1645 19.2463C22.3703 19.3255 22.5287 19.4363 22.687 19.5788C22.7503 19.658 22.8137 19.7371 22.877 19.8321C22.9403 19.9113 22.9878 20.0063 23.0195 20.1013C23.067 20.1963 23.0987 20.2913 23.1145 20.4021C23.1303 20.4971 23.1462 20.608 23.1462 20.703C23.1462 20.9088 23.0987 21.1146 23.0195 21.3046C22.9403 21.4946 22.8295 21.6688 22.687 21.8271C22.3862 22.128 21.9903 22.2863 21.5628 22.2863Z" fill="#FFC629"/>
</svg>
