<svg width="109" height="111" viewBox="0 0 109 111" fill="none" xmlns="http://www.w3.org/2000/svg">
<g filter="url(#filter0_d_1111_14863)">
<rect x="16.0537" y="16" width="76.6212" height="78.1891" rx="12" fill="white"/>
</g>
<path d="M51.8093 71.6314V67.8751H66.8343V54.5404C66.8343 52.7249 66.49 51.0189 65.8013 49.4225C65.1127 47.8261 64.1736 46.4332 62.9841 45.2437C61.7947 44.0542 60.4017 43.1151 58.8053 42.4265C57.2089 41.7378 55.5029 41.3935 53.6874 41.3935C51.8719 41.3935 50.1659 41.7378 48.5695 42.4265C46.9731 43.1151 45.5802 44.0542 44.3907 45.2437C43.2012 46.4332 42.2621 47.8261 41.5735 49.4225C40.8848 51.0189 40.5405 52.7249 40.5405 54.5404V65.997H38.6624C37.6294 65.997 36.7454 65.6295 36.0105 64.8945C35.2742 64.1583 34.9061 63.2737 34.9061 62.2407V58.4845C34.9061 57.7645 35.0783 57.1304 35.4226 56.5819C35.7669 56.0348 36.2208 55.589 36.7843 55.2447L36.9251 52.7562C37.2068 50.4711 37.8567 48.4052 38.8746 46.5584C39.8913 44.7115 41.159 43.1464 42.6778 41.863C44.1953 40.5797 45.9013 39.5855 47.7957 38.8806C49.6889 38.1769 51.6528 37.8251 53.6874 37.8251C55.7533 37.8251 57.7335 38.1769 59.6279 38.8806C61.5211 39.5855 63.2189 40.5872 64.7214 41.8856C66.2239 43.1853 67.4841 44.7504 68.5021 46.5809C69.5188 48.4127 70.168 50.4555 70.4497 52.7092L70.5906 55.1508C71.154 55.4325 71.6079 55.847 71.9522 56.3941C72.2965 56.9425 72.4687 57.5454 72.4687 58.2028V62.5225C72.4687 63.2111 72.2965 63.8215 71.9522 64.3536C71.6079 64.8858 71.154 65.2927 70.5906 65.5744V67.8751C70.5906 68.9081 70.2231 69.7927 69.4881 70.5289C68.7519 71.2639 67.8673 71.6314 66.8343 71.6314H51.8093ZM48.053 58.4845C47.5209 58.4845 47.0751 58.3042 46.7158 57.9436C46.3552 57.5842 46.1749 57.1385 46.1749 56.6064C46.1749 56.0742 46.3552 55.6278 46.7158 55.2672C47.0751 54.9079 47.5209 54.7282 48.053 54.7282C48.5852 54.7282 49.0315 54.9079 49.3921 55.2672C49.7515 55.6278 49.9312 56.0742 49.9312 56.6064C49.9312 57.1385 49.7515 57.5842 49.3921 57.9436C49.0315 58.3042 48.5852 58.4845 48.053 58.4845ZM59.3218 58.4845C58.7897 58.4845 58.3439 58.3042 57.9846 57.9436C57.624 57.5842 57.4437 57.1385 57.4437 56.6064C57.4437 56.0742 57.624 55.6278 57.9846 55.2672C58.3439 54.9079 58.7897 54.7282 59.3218 54.7282C59.8539 54.7282 60.3003 54.9079 60.6609 55.2672C61.0202 55.6278 61.1999 56.0742 61.1999 56.6064C61.1999 57.1385 61.0202 57.5842 60.6609 57.9436C60.3003 58.3042 59.8539 58.4845 59.3218 58.4845ZM42.4656 55.5734C42.3404 53.7266 42.5989 52.0519 43.2413 50.5494C43.8823 49.0469 44.7425 47.771 45.8218 46.7218C46.9024 45.6738 48.1469 44.8681 49.5555 44.3046C50.9641 43.7412 52.3727 43.4595 53.7813 43.4595C56.6298 43.4595 59.0952 44.3597 61.1774 46.1602C63.2583 47.9595 64.5179 50.2051 64.9562 52.897C62.0138 52.8657 59.3531 52.0751 56.9741 50.525C54.5952 48.9761 52.7953 46.9653 51.5745 44.4924C51.0737 47.0279 50.0175 49.2735 48.4061 51.2293C46.7934 53.1863 44.8133 54.6343 42.4656 55.5734Z" fill="#FFC629"/>
<defs>
<filter id="filter0_d_1111_14863" x="0.0537109" y="0" width="108.621" height="110.189" filterUnits="userSpaceOnUse" color-interpolation-filters="sRGB">
<feFlood flood-opacity="0" result="BackgroundImageFix"/>
<feColorMatrix in="SourceAlpha" type="matrix" values="0 0 0 0 0 0 0 0 0 0 0 0 0 0 0 0 0 0 127 0" result="hardAlpha"/>
<feOffset/>
<feGaussianBlur stdDeviation="8"/>
<feComposite in2="hardAlpha" operator="out"/>
<feColorMatrix type="matrix" values="0 0 0 0 0 0 0 0 0 0 0 0 0 0 0 0 0 0 0.12 0"/>
<feBlend mode="normal" in2="BackgroundImageFix" result="effect1_dropShadow_1111_14863"/>
<feBlend mode="normal" in="SourceGraphic" in2="effect1_dropShadow_1111_14863" result="shape"/>
</filter>
</defs>
</svg>
