<?xml version="1.0" encoding="UTF-8"?><svg id="Layer_2" xmlns="http://www.w3.org/2000/svg" viewBox="0 0 32.54 32.54"><defs><style>.cls-1{fill:none;stroke:#212427;stroke-linecap:round;stroke-linejoin:round;stroke-width:1.5px;}</style></defs><g id="Layer_1-2"><path class="cls-1" d="m31.79,16.27c0,4.68-2.07,8.88-5.35,11.73-2.72,2.36-6.28,3.79-10.17,3.79s-7.44-1.43-10.17-3.79c-3.28-2.85-5.35-7.04-5.35-11.73,0-4.21,1.68-8.04,4.4-10.83C7.95,2.57,11.85.78,16.17.75c.03,0,.07,0,.1,0s.07,0,.1,0c4.32.03,8.22,1.82,11.02,4.69,2.73,2.8,4.4,6.62,4.4,10.83Z"/><path class="cls-1" d="m4.04,6.72c3.75,1.61,7.89,2.5,12.24,2.5s8.48-.89,12.24-2.5"/><path class="cls-1" d="m28.51,25.82c-3.75-1.61-7.89-2.5-12.24-2.5s-8.48.89-12.24,2.5"/><path class="cls-1" d="m24.03,16.27c0,3.46-.57,6.66-1.52,9.24-1.41,3.81-3.68,6.28-6.24,6.28s-4.82-2.47-6.24-6.28c-.96-2.58-1.52-5.78-1.52-9.24,0-2.79.37-5.42,1.02-7.68,1.32-4.63,3.8-7.77,6.65-7.84.03,0,.07,0,.1,0s.07,0,.1,0c2.85.07,5.32,3.21,6.65,7.84.65,2.26,1.02,4.89,1.02,7.68Z"/><line class="cls-1" x1=".75" y1="16.27" x2="31.79" y2="16.27"/></g></svg>