<svg width="25" height="25" viewBox="0 0 25 25" fill="none" xmlns="http://www.w3.org/2000/svg">
<path d="M12.346 21.2914C12.146 21.2914 11.956 21.2114 11.806 21.0714L4.73597 13.8714C2.85597 11.9714 2.86597 8.63143 4.76597 6.74143C6.65597 4.85143 9.73598 4.84143 11.646 6.72143C11.926 7.00143 12.156 7.29143 12.346 7.59143C12.536 7.28143 12.766 7.00143 13.016 6.74143C13.936 5.82143 15.156 5.31143 16.466 5.31143C17.766 5.31143 18.996 5.82143 19.916 6.74143C21.826 8.65143 21.826 11.9914 19.916 13.9014L12.876 21.0714C12.736 21.2114 12.546 21.2914 12.346 21.2914ZM8.20598 6.82143C7.34597 6.82143 6.48597 7.14143 5.83597 7.80143C4.52597 9.11143 4.51597 11.5014 5.81597 12.8214L12.346 19.4714L18.856 12.8414C20.176 11.5214 20.176 9.12143 18.856 7.80143C17.586 6.53143 15.356 6.53143 14.076 7.80143C13.736 8.14143 13.476 8.55143 13.296 9.02143C13.096 9.56143 12.986 9.73143 12.986 9.73143C12.866 9.95143 12.606 10.0914 12.346 10.0914C12.086 10.0914 11.836 9.95143 11.696 9.73143C11.696 9.73143 11.596 9.56143 11.376 9.03143C11.216 8.56143 10.966 8.17143 10.626 7.83143C9.94597 7.15143 9.07597 6.82143 8.20598 6.82143Z" fill="#121331"/>
</svg>
