<svg width="21" height="26" viewBox="0 0 21 21" fill="none" xmlns="http://www.w3.org/2000/svg">
<path d="M10.3369 16C9.92691 16 9.58691 15.66 9.58691 15.25V10.25C9.58691 9.84 9.92691 9.5 10.3369 9.5C10.7469 9.5 11.0869 9.84 11.0869 10.25V15.25C11.0869 15.66 10.7469 16 10.3369 16Z" fill="#121331"/>
<path d="M10.3369 8.0002C10.0769 8.0002 9.81691 7.8902 9.62691 7.7102C9.53691 7.6102 9.46691 7.5102 9.41691 7.3802C9.36691 7.2602 9.33691 7.1302 9.33691 7.0002C9.33691 6.7402 9.44691 6.4802 9.62691 6.2902C10.0069 5.9202 10.6669 5.9202 11.0369 6.2902C11.2269 6.4802 11.3369 6.7402 11.3369 7.0002C11.3369 7.1302 11.3069 7.2602 11.2569 7.3802C11.2069 7.5102 11.1369 7.6102 11.0369 7.7102C10.9469 7.8002 10.8369 7.8702 10.7169 7.9202C10.5969 7.9702 10.4669 8.0002 10.3369 8.0002Z" fill="#121331"/>
<path d="M10.327 21.0002C7.74697 21.0002 5.30697 20.0302 3.43697 18.2402C1.50697 16.4002 0.406971 13.9102 0.336971 11.2402C0.266971 8.57018 1.25697 6.04018 3.09697 4.10018C4.93697 2.17018 7.42697 1.07018 10.097 1.00018C12.747 0.940184 15.307 1.91018 17.237 3.76018C19.167 5.60018 20.267 8.09018 20.337 10.7602C20.397 13.4302 19.427 15.9702 17.577 17.9002C15.737 19.8302 13.247 20.9302 10.577 21.0002C10.497 21.0002 10.417 21.0002 10.327 21.0002ZM10.347 2.50018C10.277 2.50018 10.207 2.50018 10.137 2.50018C7.85697 2.56018 5.74697 3.49018 4.18697 5.14018C2.61697 6.78018 1.78697 8.94018 1.84697 11.2102C1.89697 13.4802 2.83697 15.5902 4.47697 17.1602C6.11697 18.7302 8.28697 19.5602 10.547 19.5002C12.817 19.4502 14.927 18.5102 16.497 16.8702C18.067 15.2302 18.897 13.0702 18.837 10.8002C18.787 8.53018 17.847 6.42018 16.207 4.85018C14.607 3.33018 12.537 2.50018 10.347 2.50018Z" fill="#121331"/>
</svg>
