<?xml version="1.0" encoding="UTF-8"?>
<svg xmlns="http://www.w3.org/2000/svg" xmlns:xlink="http://www.w3.org/1999/xlink" version="1.1" id="Capa_1" x="0px" y="0px" viewBox="0 0 511.995 511.995" style="enable-background:new 0 0 511.995 511.995;" xml:space="preserve" width="512" height="512">
<g>
	
		<circle style="fill:none;stroke:#000000;stroke-width:15;stroke-linecap:round;stroke-linejoin:round;stroke-miterlimit:10;" cx="299.371" cy="268.353" r="125.124"/>
	
		<ellipse style="fill:none;stroke:#000000;stroke-width:15;stroke-linecap:round;stroke-linejoin:round;stroke-miterlimit:10;" cx="299.371" cy="268.353" rx="69.75" ry="125.124"/>
	
		<line style="fill:none;stroke:#000000;stroke-width:15;stroke-linecap:round;stroke-linejoin:round;stroke-miterlimit:10;" x1="299.371" y1="146.711" x2="299.371" y2="388.711"/>
	
		<line style="fill:none;stroke:#000000;stroke-width:15;stroke-linecap:round;stroke-linejoin:round;stroke-miterlimit:10;" x1="178.042" y1="268.353" x2="420.375" y2="268.353"/>
	
		<line style="fill:none;stroke:#000000;stroke-width:15;stroke-linecap:round;stroke-linejoin:round;stroke-miterlimit:10;" x1="193.209" y1="204.934" x2="404.709" y2="204.934"/>
	
		<line style="fill:none;stroke:#000000;stroke-width:15;stroke-linecap:round;stroke-linejoin:round;stroke-miterlimit:10;" x1="193.209" y1="331.772" x2="404.709" y2="331.772"/>
	<path style="fill:none;stroke:#000000;stroke-width:15;stroke-linecap:round;stroke-linejoin:round;stroke-miterlimit:10;" d="&#10;&#9;&#9;M226.993,445.405h59.229c10.438,0,18.901,8.462,18.901,18.901v20.15c0,17.845,21.599,26.755,34.18,14.1l40.154-40.389&#10;&#9;&#9;c8.121-8.169,19.165-12.762,30.684-12.762h43.736c27.955,0,50.617-22.662,50.617-50.618V141.919&#10;&#9;&#9;c0-27.956-22.662-50.618-50.617-50.618H144.865c-27.956,0-50.619,22.663-50.619,50.618v252.868&#10;&#9;&#9;c0,27.956,22.662,50.618,50.619,50.618h47.128"/>
	<path style="fill:none;stroke:#000000;stroke-width:15;stroke-linecap:round;stroke-linejoin:round;stroke-miterlimit:10;" d="&#10;&#9;&#9;M180.535,7.5H54.489C28.538,7.5,7.5,28.538,7.5,54.489v234.739c0,25.951,21.038,46.989,46.989,46.989h39.758V141.919&#10;&#9;&#9;c0-27.956,22.663-50.618,50.619-50.618h243.47V54.489c0-25.951-21.038-46.989-46.989-46.989h-125.81"/>
</g>















</svg>
