<svg width="35" height="28" viewBox="0 0 35 28" fill="none" xmlns="http://www.w3.org/2000/svg">
<g clip-path="url(#clip0_3987_434)">
<path d="M17.3521 5.47495C19.1321 5.47495 20.582 4.62494 20.582 3.57494C20.537 3.07626 20.3798 2.59423 20.1221 2.16493C20.4021 1.92493 20.3321 1.38494 19.9621 0.964935C19.5921 0.544935 19.082 0.394933 18.802 0.634933C18.391 0.283437 17.8726 0.0824077 17.332 0.0649414C16.7953 0.0835769 16.2792 0.276665 15.8621 0.614944C15.5821 0.404944 15.0721 0.554935 14.7121 0.964935C14.3521 1.37494 14.2721 1.96493 14.5621 2.16493C14.3039 2.59765 14.1466 3.08304 14.1021 3.58495C14.1021 4.63495 15.542 5.48494 17.332 5.48494" fill="#FFFFFF"/>
<path d="M34.5423 12.4051C34.2923 11.1151 30.9223 10.0552 28.0123 9.26515C24.7523 8.39515 22.0123 7.57515 20.6523 7.17515C20.5954 7.0307 20.5285 6.89037 20.4523 6.75516C20.0883 6.29427 19.6122 5.93454 19.0694 5.71042C18.5266 5.4863 17.9353 5.40529 17.3523 5.47516C16.7691 5.40432 16.1776 5.48487 15.6346 5.70906C15.0916 5.93325 14.6155 6.29353 14.2523 6.75516C14.1744 6.88605 14.1074 7.02317 14.0522 7.16514C12.7422 7.56514 9.94225 8.39515 6.66225 9.26515C3.75225 10.0552 0.372249 11.1151 0.132249 12.4051C0.100908 12.6466 0.165544 12.8908 0.312257 13.0852C1.31226 14.6852 4.31226 17.4152 6.56226 16.5652C8.62689 14.0034 11.0094 11.7149 13.6523 9.75516C13.6523 9.94516 13.6523 10.1452 13.6523 10.3452C11.0464 12.2866 8.69463 14.5476 6.65225 17.0751C6.94809 17.577 7.40867 17.9609 7.95563 18.1614C8.50258 18.362 9.10212 18.3668 9.65225 18.1752C10.4813 17.9579 11.2451 17.5422 11.8775 16.9637C12.51 16.3853 12.9921 15.6616 13.2823 14.8551C13.3723 14.6251 13.4823 14.2651 13.6023 13.8551C13.7448 13.3036 13.9151 12.7596 14.1123 12.2252C14.2425 12.7049 14.4899 13.1447 14.8322 13.5052C13.8322 13.8052 13.2623 14.7252 13.2623 17.4052C13.2623 17.8552 13.2623 18.3152 13.2623 18.7951C15.9072 18.0485 18.7073 18.0485 21.3523 18.7951C21.3523 18.3152 21.4023 17.8552 21.4023 17.4052C21.4023 14.7252 20.7922 13.8052 19.8322 13.5052C20.1722 13.1563 20.4167 12.7258 20.5423 12.2552C20.7323 12.7752 20.9023 13.3351 21.0423 13.8551C21.1306 14.1941 21.2374 14.5279 21.3623 14.8551C21.6524 15.6616 22.1345 16.3853 22.767 16.9637C23.3994 17.5422 24.1632 17.9579 24.9923 18.1752C25.5424 18.3668 26.1419 18.362 26.6889 18.1614C27.2358 17.9609 27.6964 17.577 27.9923 17.0751C25.9533 14.5504 23.601 12.2956 20.9923 10.3652C20.9923 10.1652 20.9923 9.95514 20.9923 9.77515C23.6266 11.7269 25.9993 14.0089 28.0522 16.5652C30.2522 17.4152 33.2522 14.6852 34.3022 13.0852C34.449 12.8908 34.5136 12.6466 34.4823 12.4051" fill="#FFFFFF"/>
<path d="M14.2822 23.8949C15.0322 26.2149 16.1222 27.9449 17.3522 27.9449C18.5822 27.9449 19.6722 26.2149 20.4222 23.8949C18.4022 23.4283 16.3023 23.4283 14.2822 23.8949Z" fill="#FFFFFF"/>
<path d="M13.3423 19.2549C13.4758 20.6738 13.7436 22.0767 14.1423 23.4449C16.2505 22.9517 18.4441 22.9517 20.5523 23.4449C20.9557 22.0779 21.2237 20.6744 21.3523 19.2549C18.7376 18.5101 15.9669 18.5101 13.3523 19.2549" fill="#FFFFFF"/>
</g>
<defs>
<clipPath id="clip0_3987_434">
<rect width="34.43" height="27.91" fill="white" transform="translate(0.12207 0.0449219)"/>
</clipPath>
</defs>
</svg>
