<svg width="29" height="29" viewBox="0 0 29 29" fill="none" xmlns="http://www.w3.org/2000/svg">
<g id="bx:map">
<path id="Vector" d="M14.9001 17.2855C17.4737 17.2855 19.5667 15.1925 19.5667 12.6188C19.5667 10.0451 17.4737 7.95215 14.9001 7.95215C12.3264 7.95215 10.2334 10.0451 10.2334 12.6188C10.2334 15.1925 12.3264 17.2855 14.9001 17.2855ZM14.9001 10.2855C16.1869 10.2855 17.2334 11.332 17.2334 12.6188C17.2334 13.9056 16.1869 14.9521 14.9001 14.9521C13.6132 14.9521 12.5667 13.9056 12.5667 12.6188C12.5667 11.332 13.6132 10.2855 14.9001 10.2855Z" fill="white"/>
<path id="Vector_2" d="M14.2242 26.4017C14.4216 26.5427 14.6582 26.6185 14.9008 26.6185C15.1435 26.6185 15.38 26.5427 15.5775 26.4017C15.9322 26.1509 24.268 20.1321 24.2342 12.6187C24.2342 7.47257 20.047 3.2854 14.9008 3.2854C9.75465 3.2854 5.56749 7.47257 5.56749 12.6129C5.53365 20.1321 13.8695 26.1509 14.2242 26.4017ZM14.9008 5.61873C18.7613 5.61873 21.9008 8.75823 21.9008 12.6246C21.9253 17.8022 16.7815 22.4514 14.9008 23.9762C13.0213 22.4502 7.87632 17.7999 7.90082 12.6187C7.90082 8.75823 11.0403 5.61873 14.9008 5.61873Z" fill="white"/>
</g>
</svg>
