<svg width="63" height="71" viewBox="0 0 63 71" fill="none" xmlns="http://www.w3.org/2000/svg">
<g id="Group 1197131076" filter="url(#filter0_d_895_8461)">
<path id="Vector" d="M30.5869 53.8892C30.9082 54.1186 31.2932 54.242 31.688 54.242C32.0829 54.242 32.4679 54.1186 32.7892 53.8892C33.3663 53.481 46.931 43.6867 46.8759 31.4605C46.8759 23.0862 40.0623 16.2726 31.688 16.2726C23.3138 16.2726 16.5002 23.0862 16.5002 31.451C16.4451 43.6867 30.0098 53.481 30.5869 53.8892Z" fill="#FFC629"/>
<g id="Group 1197131075">
<path id="Vector_2" d="M31.6867 39.0543C35.8748 39.0543 39.2807 35.6485 39.2807 31.4604C39.2807 27.2723 35.8748 23.8665 31.6867 23.8665C27.4987 23.8665 24.0928 27.2723 24.0928 31.4604C24.0928 35.6485 27.4987 39.0543 31.6867 39.0543ZM31.6867 27.6634C33.7807 27.6634 35.4837 29.3664 35.4837 31.4604C35.4837 33.5544 33.7807 35.2574 31.6867 35.2574C29.5927 35.2574 27.8897 33.5544 27.8897 31.4604C27.8897 29.3664 29.5927 27.6634 31.6867 27.6634Z" fill="black"/>
<path id="Vector_3" d="M30.5869 53.8892C30.9082 54.1186 31.2932 54.242 31.688 54.242C32.0829 54.242 32.4679 54.1186 32.7892 53.8892C33.3663 53.481 46.931 43.6867 46.8759 31.4605C46.8759 23.0862 40.0623 16.2726 31.688 16.2726C23.3138 16.2726 16.5002 23.0862 16.5002 31.451C16.4451 43.6867 30.0098 53.481 30.5869 53.8892ZM31.688 20.0696C37.9701 20.0696 43.079 25.1784 43.079 31.47C43.1188 39.8954 34.7484 47.4609 31.688 49.9422C28.6296 47.459 20.2573 39.8916 20.2971 31.4605C20.2971 25.1784 25.406 20.0696 31.688 20.0696Z" fill="#FFC629"/>
</g>
</g>
<defs>
<filter id="filter0_d_895_8461" x="0.5" y="0.272583" width="62.376" height="69.9694" filterUnits="userSpaceOnUse" color-interpolation-filters="sRGB">
<feFlood flood-opacity="0" result="BackgroundImageFix"/>
<feColorMatrix in="SourceAlpha" type="matrix" values="0 0 0 0 0 0 0 0 0 0 0 0 0 0 0 0 0 0 127 0" result="hardAlpha"/>
<feOffset/>
<feGaussianBlur stdDeviation="8"/>
<feComposite in2="hardAlpha" operator="out"/>
<feColorMatrix type="matrix" values="0 0 0 0 0 0 0 0 0 0 0 0 0 0 0 0 0 0 0.38 0"/>
<feBlend mode="normal" in2="BackgroundImageFix" result="effect1_dropShadow_895_8461"/>
<feBlend mode="normal" in="SourceGraphic" in2="effect1_dropShadow_895_8461" result="shape"/>
</filter>
</defs>
</svg>
