<svg width="50" height="50" viewBox="0 0 39 39" fill="none" xmlns="http://www.w3.org/2000/svg">
<path d="M37.0892 19.9525C37.0892 19.4091 37.3799 18.6886 37.6579 17.9809C38.1382 16.7928 38.6817 15.4404 38.2141 14.0754C37.7464 12.6851 36.4572 11.8889 35.3324 11.1811C34.6878 10.7893 34.0179 10.3722 33.702 9.96778C33.386 9.55069 33.1838 8.84291 32.9815 8.09722C32.6276 6.8586 32.2358 5.44304 31.0225 4.59623C29.8344 3.7747 28.3431 3.85054 27.016 3.91373C26.2324 3.95165 25.4235 3.98957 24.88 3.81262C24.3744 3.66095 23.793 3.20595 23.1864 2.73831C22.1386 1.91678 20.9505 0.994141 19.4339 0.994141C17.9172 0.994141 16.7291 1.91678 15.6801 2.73831C15.0734 3.20595 14.4921 3.66095 13.9865 3.81262C13.443 3.98957 12.6341 3.95165 11.8505 3.91373C10.5234 3.85054 9.03204 3.7747 7.84398 4.59623C6.63065 5.44304 6.23884 6.8586 5.88495 8.09722C5.68273 8.84291 5.4805 9.55069 5.16453 9.96778C4.84856 10.3722 4.1787 10.7893 3.54675 11.1811C2.40925 11.8889 1.12008 12.6851 0.652436 14.0754C0.184796 15.4404 0.72827 16.7928 1.20855 17.9809C1.48661 18.6886 1.7773 19.4091 1.7773 19.9525C1.7773 20.496 1.48661 21.2164 1.20855 21.9242C0.72827 23.1123 0.184796 24.4646 0.652436 25.8296C1.12008 27.2199 2.40925 28.0162 3.53411 28.7239C4.1787 29.1157 4.84856 29.5328 5.16453 29.9373C5.4805 30.3544 5.68273 31.0621 5.88495 31.8078C6.23884 33.0465 6.63065 34.462 7.84398 35.3088C9.03204 36.1303 10.5234 36.0545 11.8505 35.9913C12.6341 35.9534 13.443 35.9155 13.9865 36.0924C14.4921 36.2441 15.0734 36.6991 15.6801 37.1667C16.7291 37.9883 17.9172 38.9109 19.4339 38.9109C20.9505 38.9109 22.1386 37.9883 23.1876 37.1667C23.7943 36.6991 24.3757 36.2441 24.8813 36.0924C25.4247 35.9155 26.2336 35.9534 27.0172 35.9913C28.3443 36.0545 29.8357 36.1303 31.0238 35.3088C32.2371 34.462 32.6289 33.0465 32.9828 31.8078C33.185 31.0621 33.3872 30.3544 33.7032 29.9373C34.0192 29.5328 34.6891 29.1157 35.321 28.7239C36.4585 28.0162 37.7477 27.2199 38.2153 25.8296C38.683 24.4646 38.1395 23.1123 37.6592 21.9242C37.3799 21.2164 37.0892 20.496 37.0892 19.9525ZM14.3783 23.7442C14.3783 24.3003 14.0118 24.7932 13.4809 24.9575C13.3546 24.9955 13.2408 25.0081 13.1144 25.0081C12.6973 25.0081 12.3055 24.8059 12.0654 24.4393L9.32274 20.3317V23.7442C9.32274 24.4393 8.75399 25.0081 8.05885 25.0081C7.3637 25.0081 6.79495 24.4393 6.79495 23.7442V16.1608C6.79495 15.6047 7.16148 15.1118 7.69232 14.9475C8.22315 14.7832 8.80454 14.9981 9.10788 15.4657L11.8505 19.5734V16.1608C11.8505 15.4657 12.4193 14.897 13.1144 14.897C13.8096 14.897 14.3783 15.4657 14.3783 16.1608V23.7442ZM20.6978 18.6886C21.3929 18.6886 21.9617 19.2574 21.9617 19.9525C21.9617 20.6477 21.3929 21.2164 20.6978 21.2164H18.17V22.4803H20.6978C21.3929 22.4803 21.9617 23.0491 21.9617 23.7442C21.9617 24.4393 21.3929 25.0081 20.6978 25.0081H16.9061C16.211 25.0081 15.6422 24.4393 15.6422 23.7442V16.1608C15.6422 15.4657 16.211 14.897 16.9061 14.897H20.6978C21.3929 14.897 21.9617 15.4657 21.9617 16.1608C21.9617 16.856 21.3929 17.4247 20.6978 17.4247H18.17V18.6886H20.6978ZM30.795 23.9464C30.6939 24.5152 30.2389 24.9449 29.6701 25.0081H29.5438C29.0256 25.0081 28.5453 24.6795 28.3557 24.1866L27.6479 22.2907L26.9401 24.1866C26.7379 24.73 26.1944 25.0587 25.6257 25.0081C25.0569 24.9449 24.6019 24.5152 24.5008 23.9464L23.2369 16.3631C23.1232 15.6806 23.5908 15.0233 24.286 14.9096C24.9685 14.7958 25.6257 15.2635 25.7394 15.9586L26.2197 18.8909L26.4599 18.2463C26.6494 17.7534 27.1171 17.4247 27.6479 17.4247C28.1787 17.4247 28.6464 17.7534 28.836 18.2463L29.0761 18.8909L29.5564 15.9586C29.6701 15.2635 30.3274 14.7958 31.0099 14.9096C31.705 15.0233 32.1726 15.6806 32.0589 16.3631L30.795 23.9464Z" fill="#FFC629"/>
</svg>
