<svg width="21" height="21" viewBox="0 0 21 21" fill="none" xmlns="http://www.w3.org/2000/svg">
<g id="bi:chat-right-dots" clip-path="url(#clip0_1054_17550)">
<g id="Group">
<path id="Vector" d="M2.63216 1.30046C2.28726 1.30046 1.95648 1.43747 1.7126 1.68135C1.46872 1.92523 1.33171 2.25601 1.33171 2.60091V13.0046C1.33171 13.3495 1.46872 13.6802 1.7126 13.9241C1.95648 14.168 2.28726 14.305 2.63216 14.305H15.0983C15.7881 14.3052 16.4495 14.5793 16.9372 15.0671L19.5381 17.668V2.60091C19.5381 2.25601 19.4011 1.92523 19.1572 1.68135C18.9133 1.43747 18.5825 1.30046 18.2376 1.30046H2.63216ZM18.2376 0C18.9274 0 19.589 0.274024 20.0768 0.76179C20.5645 1.24956 20.8386 1.91111 20.8386 2.60091V19.2376C20.8385 19.3663 20.8003 19.4921 20.7288 19.599C20.6573 19.706 20.5556 19.7893 20.4367 19.8384C20.3178 19.8876 20.187 19.9003 20.0608 19.8751C19.9347 19.8499 19.8188 19.7878 19.728 19.6967L16.0178 15.9865C15.7739 15.7426 15.4432 15.6055 15.0983 15.6055H2.63216C1.94236 15.6055 1.28081 15.3314 0.79304 14.8437C0.305274 14.3559 0.03125 13.6944 0.03125 13.0046V2.60091C0.03125 1.91111 0.305274 1.24956 0.79304 0.76179C1.28081 0.274024 1.94236 0 2.63216 0L18.2376 0Z" fill="#FFC629"/>
<path id="Vector_2" d="M6.53353 7.80278C6.53353 8.14768 6.39652 8.47845 6.15263 8.72234C5.90875 8.96622 5.57798 9.10323 5.23307 9.10323C4.88817 9.10323 4.55739 8.96622 4.31351 8.72234C4.06963 8.47845 3.93262 8.14768 3.93262 7.80278C3.93262 7.45787 4.06963 7.1271 4.31351 6.88321C4.55739 6.63933 4.88817 6.50232 5.23307 6.50232C5.57798 6.50232 5.90875 6.63933 6.15263 6.88321C6.39652 7.1271 6.53353 7.45787 6.53353 7.80278ZM11.7354 7.80278C11.7354 8.14768 11.5983 8.47845 11.3545 8.72234C11.1106 8.96622 10.7798 9.10323 10.4349 9.10323C10.09 9.10323 9.75922 8.96622 9.51534 8.72234C9.27145 8.47845 9.13444 8.14768 9.13444 7.80278C9.13444 7.45787 9.27145 7.1271 9.51534 6.88321C9.75922 6.63933 10.09 6.50232 10.4349 6.50232C10.7798 6.50232 11.1106 6.63933 11.3545 6.88321C11.5983 7.1271 11.7354 7.45787 11.7354 7.80278ZM16.9372 7.80278C16.9372 8.14768 16.8002 8.47845 16.5563 8.72234C16.3124 8.96622 15.9816 9.10323 15.6367 9.10323C15.2918 9.10323 14.961 8.96622 14.7172 8.72234C14.4733 8.47845 14.3363 8.14768 14.3363 7.80278C14.3363 7.45787 14.4733 7.1271 14.7172 6.88321C14.961 6.63933 15.2918 6.50232 15.6367 6.50232C15.9816 6.50232 16.3124 6.63933 16.5563 6.88321C16.8002 7.1271 16.9372 7.45787 16.9372 7.80278Z" fill="#FFC629"/>
</g>
</g>
<defs>
<clipPath id="clip0_1054_17550">
<rect width="20.8073" height="20.8073" fill="white" transform="translate(0.03125)"/>
</clipPath>
</defs>
</svg>
