<svg width="35" height="36" viewBox="0 0 35 36" fill="none" xmlns="http://www.w3.org/2000/svg">
<g clip-path="url(#clip0_3790_733)">
<circle cx="17.6802" cy="18.0601" r="14.4829" fill="white"/>
<g filter="url(#filter0_d_3790_733)">
<path d="M17.5136 33.4613C8.90952 33.4613 1.90918 26.4609 1.90918 17.8569C1.90918 15.0182 2.67898 12.2389 4.13598 9.8197C5.49996 7.55441 7.43006 5.65879 9.7186 4.3365C12.0785 2.97332 14.7736 2.25244 17.5136 2.25244C26.1177 2.25244 33.118 9.25278 33.118 17.8569C33.118 26.4609 26.1177 33.4613 17.5136 33.4613ZM5.3035 10.5229C3.9748 12.7305 3.27236 15.266 3.27236 17.8569C3.27236 25.7096 9.66087 32.0981 17.5136 32.0981C25.3663 32.0981 31.7548 25.7096 31.7548 17.8569C31.7548 10.0041 25.3663 3.61562 17.5136 3.61562C12.4722 3.61562 7.90718 6.19765 5.3035 10.5229Z" fill="#FFC629"/>
</g>
<path d="M8.49081 18.5537C8.43548 18.5537 8.38095 18.5529 8.32642 18.5513C8.03855 18.5441 7.81082 18.3051 7.81804 18.0173C7.82525 17.7294 8.06742 17.5033 8.35208 17.5089C8.39859 17.5097 8.4443 17.5105 8.49081 17.5105H26.3316C26.3597 17.5105 26.3878 17.5105 26.4158 17.5097C26.7053 17.5001 26.9419 17.7326 26.9475 18.0205C26.9531 18.3084 26.7246 18.5465 26.4367 18.5521C26.4014 18.5529 26.3669 18.5529 26.3316 18.5529L8.49081 18.5537Z" fill="#FFC629"/>
<path d="M17.6796 27.6251C17.6756 27.6251 17.6708 27.6251 17.6668 27.6251C17.3789 27.6179 17.1512 27.3789 17.1584 27.0911C17.1592 27.0446 17.16 26.9989 17.16 26.9524V9.11152C17.16 9.08345 17.16 9.05539 17.1592 9.02732C17.1536 8.73945 17.3821 8.50129 17.67 8.49568C17.9594 8.49087 18.196 8.7186 18.2016 9.00647C18.2024 9.04175 18.2024 9.07624 18.2024 9.11152V26.9524C18.2024 27.0077 18.2016 27.0622 18.2 27.1167C18.1936 27.4006 17.961 27.6251 17.6796 27.6251Z" fill="#FFC629"/>
</g>
<defs>
<filter id="filter0_d_3790_733" x="-14.0908" y="-13.7476" width="63.209" height="63.209" filterUnits="userSpaceOnUse" color-interpolation-filters="sRGB">
<feFlood flood-opacity="0" result="BackgroundImageFix"/>
<feColorMatrix in="SourceAlpha" type="matrix" values="0 0 0 0 0 0 0 0 0 0 0 0 0 0 0 0 0 0 127 0" result="hardAlpha"/>
<feOffset/>
<feGaussianBlur stdDeviation="8"/>
<feComposite in2="hardAlpha" operator="out"/>
<feColorMatrix type="matrix" values="0 0 0 0 0 0 0 0 0 0 0 0 0 0 0 0 0 0 0.12 0"/>
<feBlend mode="normal" in2="BackgroundImageFix" result="effect1_dropShadow_3790_733"/>
<feBlend mode="normal" in="SourceGraphic" in2="effect1_dropShadow_3790_733" result="shape"/>
</filter>
<clipPath id="clip0_3790_733">
<rect width="34.4805" height="34.4805" fill="white" transform="translate(0.273438 0.616699)"/>
</clipPath>
</defs>
</svg>
