<svg width="39" height="39" viewBox="0 0 39 39" fill="none" xmlns="http://www.w3.org/2000/svg">
<path d="M19.2266 0.952637C8.75756 0.952637 0.226562 9.48364 0.226562 19.9526C0.226562 30.4216 8.75756 38.9526 19.2266 38.9526C29.6956 38.9526 38.2266 30.4216 38.2266 19.9526C38.2266 9.48364 29.6956 0.952637 19.2266 0.952637ZM19.2266 36.1026C10.3156 36.1026 3.07656 28.8636 3.07656 19.9526C3.07656 11.0416 10.3156 3.80264 19.2266 3.80264C28.1376 3.80264 35.3766 11.0416 35.3766 19.9526C35.3766 28.8636 28.1376 36.1026 19.2266 36.1026Z" fill="#FFC629"/>
<path d="M23.1586 29.0153C23.1586 29.3953 23.0066 29.7563 22.7406 30.0223L19.6626 33.0813C19.3966 33.3663 19.0166 33.4993 18.6556 33.4993C18.2946 33.4993 17.9336 33.3663 17.6486 33.0813C17.0976 32.5303 17.0976 31.6373 17.6486 31.0673L18.3516 30.3643C15.9386 30.1743 13.6206 29.1293 11.8536 27.3623C8.18664 23.6953 7.74964 18.0143 10.8086 13.8343C11.2646 13.2073 12.1576 13.0743 12.8036 13.5303C13.4306 14.0053 13.5636 14.8983 13.1076 15.5253C10.8846 18.5463 11.2076 22.6883 13.8676 25.3483C15.0456 26.5263 16.5656 27.2673 18.1616 27.4763L17.6486 26.9633C17.0976 26.4123 17.0976 25.5003 17.6486 24.9493C18.2186 24.3983 19.1116 24.3983 19.6626 24.9493L22.4556 27.7423L22.7406 28.0083C23.0066 28.2743 23.1586 28.6353 23.1586 29.0153Z" fill="#FFC629"/>
<path d="M27.6821 26.0704C27.3971 26.4504 26.9791 26.6594 26.5231 26.6594C26.2381 26.6594 25.9531 26.5644 25.6871 26.3744C25.0601 25.9184 24.9271 25.0254 25.3831 24.3794C27.5871 21.3584 27.2831 17.2354 24.6231 14.5944C23.4451 13.3974 21.9061 12.6564 20.2911 12.4474L20.7851 12.9414C21.3551 13.4924 21.3551 14.3854 20.7851 14.9554C20.5191 15.2214 20.1581 15.3734 19.7781 15.3734C19.4171 15.3734 19.0561 15.2214 18.7711 14.9554L16.0731 12.2574L15.9591 12.1244L15.7121 11.8774C15.1611 11.3264 15.1611 10.4334 15.7121 9.86336L18.7711 6.80436C19.3411 6.25336 20.2341 6.25336 20.7851 6.80436C21.3551 7.35536 21.3551 8.26736 20.7851 8.81836L20.0631 9.54036C22.5141 9.73036 24.8511 10.7754 26.6371 12.5804C30.2851 16.2284 30.7221 21.9094 27.6821 26.0704Z" fill="#FFC629"/>
</svg>
