<svg width="12" height="12" viewBox="0 0 18 18" fill="none" xmlns="http://www.w3.org/2000/svg">
<path d="M17.6535 16.5651L13.9235 12.8351C14.9835 11.5051 15.6235 9.81512 15.6235 7.99512C15.6235 3.72512 12.1435 0.245117 7.87354 0.245117C3.60354 0.245117 0.123535 3.72512 0.123535 7.99512C0.123535 12.2651 3.60354 15.7451 7.87354 15.7451C9.77353 15.7451 11.5235 15.0551 12.8835 13.9151L16.5935 17.6251C16.7435 17.7751 16.9335 17.8451 17.1235 17.8451C17.3135 17.8451 17.5035 17.7751 17.6535 17.6251C17.9435 17.3351 17.9435 16.8551 17.6535 16.5651ZM1.62354 7.99512C1.62354 4.54512 4.42354 1.74512 7.87354 1.74512C11.3235 1.74512 14.1235 4.54512 14.1235 7.99512C14.1235 9.68512 13.4635 11.2051 12.3735 12.3251L12.3635 12.3351C12.3535 12.3451 12.3535 12.3451 12.3535 12.3551C11.2135 13.5251 9.62354 14.2451 7.87354 14.2451C4.42354 14.2451 1.62354 11.4451 1.62354 7.99512Z" fill="#121331"/>
</svg>