<svg width="38" height="34" viewBox="0 0 38 34" fill="none" xmlns="http://www.w3.org/2000/svg">
<path d="M17.3406 33.9032V30.1469H32.3656V16.8122C32.3656 14.9967 32.0213 13.2907 31.3326 11.6943C30.644 10.0979 29.7049 8.70493 28.5155 7.51545C27.326 6.32597 25.933 5.38691 24.3366 4.69826C22.7402 4.00961 21.0342 3.66529 19.2187 3.66529C17.4032 3.66529 15.6972 4.00961 14.1008 4.69826C12.5044 5.38691 11.1115 6.32597 9.92199 7.51545C8.7325 8.70493 7.79344 10.0979 7.10479 11.6943C6.41615 13.2907 6.07182 14.9967 6.07182 16.8122V28.2688H4.1937C3.16072 28.2688 2.27675 27.9013 1.54178 27.1663C0.805552 26.4301 0.437439 25.5455 0.437439 24.5125V20.7563C0.437439 20.0363 0.609601 19.4021 0.953924 18.8537C1.29825 18.3066 1.75213 17.8608 2.31557 17.5165L2.45643 15.028C2.73815 12.7429 3.38798 10.677 4.40592 8.83014C5.42262 6.98332 6.69035 5.41821 8.20913 4.13482C9.72666 2.85144 11.4326 1.85728 13.327 1.15236C15.2202 0.448684 17.1841 0.0968475 19.2187 0.0968475C21.2847 0.0968475 23.2648 0.448684 25.1592 1.15236C27.0524 1.85728 28.7502 2.85895 30.2527 4.15736C31.7552 5.45703 33.0154 7.02213 34.0334 8.85268C35.0501 10.6845 35.6993 12.7273 35.981 14.981L36.1219 17.4226C36.6853 17.7043 37.1392 18.1187 37.4835 18.6659C37.8278 19.2143 38 19.8172 38 20.4745V24.7942C38 25.4829 37.8278 26.0933 37.4835 26.6254C37.1392 27.1575 36.6853 27.5645 36.1219 27.8462V30.1469C36.1219 31.1799 35.7544 32.0645 35.0194 32.8007C34.2832 33.5357 33.3986 33.9032 32.3656 33.9032H17.3406ZM13.5843 20.7563C13.0522 20.7563 12.6065 20.576 12.2471 20.2154C11.8865 19.856 11.7062 19.4103 11.7062 18.8781C11.7062 18.346 11.8865 17.8996 12.2471 17.539C12.6065 17.1797 13.0522 17 13.5843 17C14.1165 17 14.5628 17.1797 14.9234 17.539C15.2828 17.8996 15.4625 18.346 15.4625 18.8781C15.4625 19.4103 15.2828 19.856 14.9234 20.2154C14.5628 20.576 14.1165 20.7563 13.5843 20.7563ZM24.8531 20.7563C24.321 20.7563 23.8752 20.576 23.5159 20.2154C23.1553 19.856 22.975 19.4103 22.975 18.8781C22.975 18.346 23.1553 17.8996 23.5159 17.539C23.8752 17.1797 24.321 17 24.8531 17C25.3852 17 25.8316 17.1797 26.1922 17.539C26.5516 17.8996 26.7312 18.346 26.7312 18.8781C26.7312 19.4103 26.5516 19.856 26.1922 20.2154C25.8316 20.576 25.3852 20.7563 24.8531 20.7563ZM7.9969 17.8452C7.8717 15.9983 8.13025 14.3237 8.77257 12.8212C9.41364 11.3187 10.2738 10.0428 11.3531 8.99354C12.4337 7.94554 13.6782 7.13983 15.0868 6.57639C16.4954 6.01295 17.904 5.73123 19.3126 5.73123C22.1611 5.73123 24.6265 6.63148 26.7087 8.43198C28.7897 10.2312 30.0493 12.4768 30.4875 15.1688C27.5451 15.1375 24.8844 14.3468 22.5054 12.7967C20.1265 11.2479 18.3266 9.23707 17.1058 6.7642C16.605 9.29967 15.5489 11.5453 13.9374 13.501C12.3247 15.4581 10.3446 16.9061 7.9969 17.8452Z" fill="#FFC629"/>
</svg>
