<svg width="16" height="16" viewBox="0 0 16 16" fill="none" xmlns="http://www.w3.org/2000/svg">
<path d="M12.9385 8.2959V3.6084C12.9385 3.43913 12.8766 3.29264 12.7529 3.16895C12.6292 3.04525 12.4827 2.9834 12.3135 2.9834H7.62598C7.35254 2.9834 7.16048 3.11035 7.0498 3.36426C6.93913 3.63118 6.9847 3.85905 7.18652 4.04785L8.59277 5.4541L3.37793 10.6689C3.25423 10.7926 3.19238 10.9391 3.19238 11.1084C3.19238 11.2777 3.25423 11.4242 3.37793 11.5479L4.37402 12.5439C4.49772 12.6676 4.64421 12.7295 4.81348 12.7295C4.98275 12.7295 5.12923 12.6676 5.25293 12.5439L10.4678 7.3291L11.874 8.73535C11.9912 8.85905 12.1377 8.9209 12.3135 8.9209C12.3916 8.9209 12.473 8.90462 12.5576 8.87207C12.8115 8.76139 12.9385 8.56934 12.9385 8.2959ZM15.4385 3.2959V12.6709C15.4385 13.4456 15.1634 14.1081 14.6133 14.6582C14.0632 15.2083 13.4007 15.4834 12.626 15.4834H3.25098C2.47624 15.4834 1.8138 15.2083 1.26367 14.6582C0.713542 14.1081 0.438477 13.4456 0.438477 12.6709V3.2959C0.438477 2.52116 0.713542 1.85872 1.26367 1.30859C1.8138 0.758464 2.47624 0.483398 3.25098 0.483398H12.626C13.4007 0.483398 14.0632 0.758464 14.6133 1.30859C15.1634 1.85872 15.4385 2.52116 15.4385 3.2959Z" fill="black"/>
</svg>
