<svg width="34" height="31" viewBox="0 0 34 31" fill="none" xmlns="http://www.w3.org/2000/svg">
<path d="M30.177 7.03174H4.70191C3.46048 7.03174 2.4541 8.09182 2.4541 9.3995V26.7631C2.4541 28.0708 3.46048 29.1309 4.70191 29.1309H30.177C31.4185 29.1309 32.4248 28.0708 32.4248 26.7631V9.3995C32.4248 8.09182 31.4185 7.03174 30.177 7.03174Z" stroke="#FFC629" stroke-width="2.99707" stroke-linejoin="round"/>
<path d="M9.94613 2.2959V7.03142M24.9315 2.2959V7.03142M7.11914 16.5025L10.6954 12.5696V23.6058M17.4388 7.03142V29.1305" stroke="#FFC629" stroke-width="2.99707" stroke-linecap="round" stroke-linejoin="round"/>
<path d="M24.9324 23.6057C26.1738 23.6057 27.1802 21.1322 27.1802 18.0809C27.1802 15.0297 26.1738 12.5562 24.9324 12.5562C23.6909 12.5562 22.6846 15.0297 22.6846 18.0809C22.6846 21.1322 23.6909 23.6057 24.9324 23.6057Z" stroke="#FFC629" stroke-width="2.99707" stroke-linejoin="round"/>
<path d="M15.1914 29.1309H19.687M15.1914 7.03174H19.687H15.1914Z" stroke="#FFC629" stroke-width="2.99707" stroke-linecap="round" stroke-linejoin="round"/>
</svg>
