<svg width="28" height="28" viewBox="0 0 28 28" fill="none" xmlns="http://www.w3.org/2000/svg">
<path d="M1.64448 27.4527C1.34448 27.4527 1.05948 27.3327 0.849481 27.1227C0.549481 26.8227 0.44448 26.3727 0.57948 25.9677L5.82948 10.2177C5.94948 9.84267 6.26448 9.57267 6.63948 9.48267C7.01448 9.39267 7.41948 9.51267 7.68948 9.78267L18.1895 20.2827C18.4595 20.5527 18.5795 20.9577 18.4895 21.3327C18.3995 21.7077 18.1145 22.0227 17.7545 22.1427L2.00448 27.3927C1.88448 27.4377 1.76448 27.4527 1.64448 27.4527ZM7.38948 12.6627L3.42948 24.5577L15.3245 20.5977L7.38948 12.6627Z" fill="#FFC629"/>
<path d="M15.5793 12.5125C15.2943 12.5125 15.0093 12.4075 14.7843 12.1825C14.3493 11.7475 14.3493 11.0275 14.7843 10.5925C15.6243 9.75252 16.5693 9.79752 17.1393 9.81252C17.6343 9.84252 17.6793 9.81252 17.7993 9.69252C17.9193 9.57252 17.9343 9.52752 17.9193 9.03252C17.8893 8.46252 17.8593 7.51752 18.6843 6.69252C19.5243 5.85252 20.4693 5.89752 21.0393 5.91252C21.5343 5.92752 21.5793 5.91252 21.6993 5.79252C21.8193 5.67252 21.8343 5.61252 21.8193 5.13252C21.7893 4.56252 21.7593 3.61752 22.5993 2.77752C23.4393 1.93752 24.3843 1.98252 24.9543 1.99752C25.4493 2.02752 25.4943 1.99752 25.6143 1.87752C26.0493 1.44252 26.7693 1.44252 27.2043 1.87752C27.6393 2.31252 27.6393 3.03252 27.2043 3.46752C26.3643 4.30752 25.4193 4.26252 24.8493 4.24752C24.3543 4.23252 24.3093 4.24752 24.1893 4.36752C24.0693 4.48752 24.0543 4.54752 24.0693 5.02752C24.0993 5.59752 24.1293 6.54252 23.2893 7.38252C22.4493 8.22252 21.5043 8.17752 20.9493 8.16252C20.4543 8.14752 20.4093 8.16252 20.2893 8.28252C20.1693 8.40252 20.1543 8.44752 20.1693 8.94252C20.1993 9.51252 20.2293 10.4575 19.4043 11.2825C18.5643 12.1225 17.6343 12.0775 17.0493 12.0625C16.5543 12.0475 16.5093 12.0625 16.3893 12.1825C16.1643 12.4075 15.8793 12.5125 15.5793 12.5125Z" fill="#FFC629"/>
<path d="M11.3945 9.45264C10.7795 9.45264 10.2695 8.94264 10.2695 8.32764V5.32764C10.2695 3.88764 9.08453 2.70264 7.64453 2.70264C7.02953 2.70264 6.51953 2.19264 6.51953 1.57764C6.51953 0.962637 7.02953 0.452637 7.64453 0.452637C10.3295 0.452637 12.5195 2.64264 12.5195 5.32764V8.32764C12.5195 8.94264 12.0095 9.45264 11.3945 9.45264Z" fill="#FFC629"/>
<path d="M26.3945 21.4526C25.7795 21.4526 25.2695 20.9426 25.2695 20.3276C25.2695 18.8876 24.0845 17.7026 22.6445 17.7026H19.6445C19.0295 17.7026 18.5195 17.1926 18.5195 16.5776C18.5195 15.9626 19.0295 15.4526 19.6445 15.4526H22.6445C25.3295 15.4526 27.5195 17.6426 27.5195 20.3276C27.5195 20.9426 27.0095 21.4526 26.3945 21.4526Z" fill="#FFC629"/>
<path d="M15.1445 4.20286C14.9945 4.20286 14.8595 4.17286 14.7095 4.11286C14.5745 4.05286 14.4545 3.97786 14.3495 3.87286C14.1395 3.66286 14.0195 3.37786 14.0195 3.07786C14.0195 2.77786 14.1395 2.49286 14.3495 2.28286C14.6645 1.96786 15.1595 1.86286 15.5795 2.04286C15.7145 2.10286 15.8345 2.17786 15.9395 2.28286C16.0445 2.38786 16.1195 2.50786 16.1795 2.64286C16.2395 2.79286 16.2695 2.92786 16.2695 3.07786C16.2695 3.37786 16.1495 3.66286 15.9395 3.87286C15.8345 3.97786 15.7145 4.05286 15.5795 4.11286C15.4295 4.17286 15.2945 4.20286 15.1445 4.20286Z" fill="#FFC629"/>
<path d="M26.3945 13.9526C26.0945 13.9526 25.8095 13.8326 25.5995 13.6226C25.4945 13.5176 25.4195 13.3976 25.3595 13.2626C25.2995 13.1276 25.2695 12.9776 25.2695 12.8276C25.2695 12.5276 25.3895 12.2426 25.5995 12.0326C25.7045 11.9276 25.8245 11.8526 25.9595 11.7926C26.2445 11.6726 26.5445 11.6726 26.8295 11.7926C26.9645 11.8526 27.0845 11.9276 27.1895 12.0326C27.3995 12.2426 27.5195 12.5276 27.5195 12.8276C27.5195 12.9776 27.4895 13.1276 27.4295 13.2626C27.3695 13.3976 27.2945 13.5176 27.1895 13.6226C26.9795 13.8326 26.6945 13.9526 26.3945 13.9526Z" fill="#FFC629"/>
</svg>
